<svg id="icon" height="70" viewBox="0 0 128 128" width="70" xmlns="http://www.w3.org/2000/svg"><path d="m70.21 127.57c-1.9.046-10.887.046-12.926-.012-21.993-.6-21.059-12.673-21.059-12.673s.069-11.509.115-26.359c.035-10.1.069-21.751.069-32.373 0-13.122-.046-6.244-.184-11.359-.269-10.534 5.359-19.064 8.9-23.367a12.4 12.4 0 0 0 2.791-7.891v-6.563h32.167v6.564a12.4 12.4 0 0 0 2.791 7.891c3.544 4.3 9.172 12.833 8.9 23.367-.138 5.161-.184-1.544-.184 11.739 0 10.645.035 22.292.069 32.35.046 14.677.115 26 .115 26s.958 12.26-21.564 12.686z" fill="#d9e2e9"/><path d="m91.776 114.886s-.069-11.325-.115-26c-.035-10.057-.069-21.7-.069-32.35 0-13.283.046-6.578.184-11.739.269-10.534-5.359-19.064-8.9-23.367a12.4 12.4 0 0 1 -2.791-7.891v-6.566h-9.968v.977a29.321 29.321 0 0 0 5.13 16.588c3.239 4.724 6.778 11.853 6.563 20.257-.138 5.161-.184-1.544-.184 11.739 0 10.645.035 22.292.069 32.35.046 14.677.115 26 .115 26s.956 12.258-21.567 12.684c-.184 0-.438.012-.749.012 3.445.035 9.228.023 10.714-.012 22.524-.424 21.568-12.682 21.568-12.682z" fill="#c1cdd3"/><path d="m63.979 128.605c-2.8 0-5.665-.012-6.72-.042-9.058-.25-15.49-2.421-19.117-6.454a10.476 10.476 0 0 1 -2.909-7.3c0-.477.386-54.866 0-69.994-.28-10.921 5.595-19.741 9.121-24.026a11.423 11.423 0 0 0 2.562-7.254v-6.558a1 1 0 0 1 1-1h32.172a1 1 0 0 1 1 1v6.563a11.423 11.423 0 0 0 2.562 7.254c3.526 4.285 9.4 13.1 9.121 24.026-.386 15-.011 68.57 0 70.038a10.558 10.558 0 0 1 -2.947 7.292c-3.705 4.085-10.3 6.247-19.6 6.426-.943.018-3.568.029-6.245.029zm-15.067-120.628v5.563a13.43 13.43 0 0 1 -3.012 8.524c-3.35 4.07-8.93 12.433-8.666 22.7.389 15.161 0 69.583 0 70.131a8.511 8.511 0 0 0 2.442 5.922c3.212 3.528 9.313 5.514 17.642 5.744 1.981.055 11 .048 12.874.011 8.6-.166 14.881-2.161 18.154-5.77a8.521 8.521 0 0 0 2.432-5.836c0-.023 0-.047 0-.071 0-.548-.389-54.97 0-70.131.264-10.271-5.316-18.633-8.666-22.7a13.43 13.43 0 0 1 -3.017-8.524v-5.563z" fill="#2f3a5a"/><rect fill="#6bb3d9" height="13.159" rx="1.487" width="38.657" x="44.672" y=".397"/><path d="m83.332 1.881v10.184a1.482 1.482 0 0 1 -1.486 1.486h-35.691a1.482 1.482 0 0 1 -1.486-1.486v-1.765h32.257a1.49 1.49 0 0 0 1.486-1.486v-8.419h3.433a1.49 1.49 0 0 1 1.487 1.486z" fill="#4fa4d1"/><path d="m81.842 14.556h-35.684a2.489 2.489 0 0 1 -2.486-2.487v-10.185a2.489 2.489 0 0 1 2.486-2.484h35.684a2.489 2.489 0 0 1 2.486 2.487v10.182a2.489 2.489 0 0 1 -2.486 2.487zm-35.684-13.156a.487.487 0 0 0 -.486.487v10.182a.487.487 0 0 0 .486.487h35.684a.487.487 0 0 0 .486-.487v-10.185a.487.487 0 0 0 -.486-.487z" fill="#2f3a5a"/><path d="m91.661 88.884a461.624 461.624 0 0 1 -55.322-.357c.035-10.1.069-21.751.069-32.373a430.248 430.248 0 0 0 55.183.38c.001 10.646.035 22.293.07 32.35z" fill="#6bb3d9"/><path d="m67.041 90.042c-10.25 0-20.522-.339-30.735-1.016l-.469-.026v-.47c.035-10.1.069-21.75.069-32.371v-.537l.535.038a431.151 431.151 0 0 0 55.12.38l.531-.04v.53c0 10.645.034 22.292.069 32.348v.476l-.476.026c-8.165.443-16.397.662-24.644.662zm-30.2-1.983a462.551 462.551 0 0 0 54.318.351c-.033-9.781-.066-21.013-.067-31.346a432.5 432.5 0 0 1 -54.184-.373c-.001 10.309-.034 21.544-.067 31.368z" fill="#6bb3d9"/><path d="m91.592 56.535c-2.074.115-4.147.219-6.233.311.011 9.263.035 18.963.069 27.511a461.865 461.865 0 0 1 -49.078.012c0 1.406-.011 2.8-.011 4.159a461.617 461.617 0 0 0 55.322.357c-.035-10.058-.069-21.705-.069-32.35z" fill="#4fa4d1"/><path d="m67.041 90.542c-10.261 0-20.545-.339-30.769-1.017l-.937-.062v-.939c.035-10.1.069-21.749.069-32.37v-1.073l1.07.076a430.765 430.765 0 0 0 55.056.379l1.058-.061v1.059c0 10.644.034 22.29.069 32.346v.951l-.949.051c-8.17.44-16.408.66-24.667.66zm-29.7-2.951a462.819 462.819 0 0 0 53.316.345c-.033-9.5-.064-20.323-.066-30.343a432.892 432.892 0 0 1 -53.184-.366c-.001 10-.032 20.823-.065 30.364z" fill="#2f3a5a"/><path d="m55.667 81.063a1 1 0 0 1 -1-1v-10.93l-4.661 5.459a1 1 0 0 1 -.761.351h-.006a1 1 0 0 1 -.762-.359l-4.5-5.4v10.88a1 1 0 0 1 -2 0v-13.642a1 1 0 0 1 1.768-.641l5.513 6.611 5.652-6.62a1 1 0 0 1 1.761.649v13.642a1 1 0 0 1 -1.004 1z" fill="#2f3a5a"/><path d="m60.308 81.063a1 1 0 0 1 -1-1v-13.641a1 1 0 0 1 2 0v13.641a1 1 0 0 1 -1 1z" fill="#2f3a5a"/><path d="m73.81 81.063h-8.862a1 1 0 0 1 -1-1v-13.718a1 1 0 0 1 2 0v12.718h7.862a1 1 0 0 1 0 2z" fill="#2f3a5a"/><path d="m77.562 81.063a1 1 0 0 1 -1-1v-14.046a1 1 0 0 1 2 0v14.046a1 1 0 0 1 -1 1z" fill="#2f3a5a"/><path d="m84.378 81.063a1 1 0 0 1 -.718-.3l-6.816-7.023a1 1 0 0 1 .021-1.414l6.816-6.618a1 1 0 1 1 1.393 1.435l-6.1 5.921 6.12 6.306a1 1 0 0 1 -.718 1.7z" fill="#2f3a5a"/><g fill="#477ea8"><path d="m49.733 10.428a1 1 0 0 1 -1-1v-5.466a1 1 0 1 1 2 0v5.466a1 1 0 0 1 -1 1z"/><path d="m54.488 10.428a1 1 0 0 1 -1-1v-5.466a1 1 0 1 1 2 0v5.466a1 1 0 0 1 -1 1z"/><path d="m59.244 10.428a1 1 0 0 1 -1-1v-5.466a1 1 0 1 1 2 0v5.466a1 1 0 0 1 -1 1z"/><path d="m64 10.428a1 1 0 0 1 -1-1v-5.466a1 1 0 1 1 2 0v5.466a1 1 0 0 1 -1 1z"/><path d="m68.756 10.428a1 1 0 0 1 -1-1v-5.466a1 1 0 1 1 2 0v5.466a1 1 0 0 1 -1 1z"/><path d="m73.512 10.428a1 1 0 0 1 -1-1v-5.466a1 1 0 1 1 2 0v5.466a1 1 0 0 1 -1 1z"/><path d="m78.267 10.428a1 1 0 0 1 -1-1v-5.466a1 1 0 1 1 2 0v5.466a1 1 0 0 1 -1 1z"/></g></svg>