<svg height="70" viewBox="0 0 512 512" width="70" xmlns="http://www.w3.org/2000/svg"><g id="flat"><path d="m153.111 80h-57.111a8 8 0 0 1 0-16h57.111a557.5 557.5 0 0 0 196.417-35.617l31.663-11.874a8 8 0 1 1 5.618 14.982l-31.663 11.873a573.446 573.446 0 0 1 -202.035 36.636z" fill="#5ebef7"/><path d="m423.88 103.88-6.87 168.12h-322.02l-6.99-166.95z" fill="#e2e2e2"/><path d="m417.013 272-8.073 192.979a24 24 0 0 1 -23.98 23.021h-257.92a24 24 0 0 1 -23.98-23.021l-8.073-192.979z" fill="#5ebef7"/><circle cx="256" cy="272" fill="#92d1f7" r="136"/><path d="m392 272a136.818 136.818 0 0 1 -3.21 29.53l-28.79 10.47-12.3 14.75a92.364 92.364 0 0 1 -70.98 33.25h-31.79a92.389 92.389 0 0 1 -84.93-56h160l71.77-39.87q.23 3.915.23 7.87z" fill="#92d1f7"/><path d="m84 72h344a4 4 0 0 1 4 4v28.979a0 0 0 0 1 0 0h-352a0 0 0 0 1 0 0v-28.979a4 4 0 0 1 4-4z" fill="#cbcbcb"/><path d="m296 272a16 16 0 0 0 0-32v-8.666a15.334 15.334 0 0 0 -15.334-15.334h-12.485a28 28 0 0 1 -26.563-19.146l-1.618-4.854-13.313 8.875a24 24 0 0 0 -10.687 19.969v19.156a16 16 0 0 0 0 32 24 24 0 0 0 0 48h80a24 24 0 0 0 0-48z" fill="#e2e2e2"/><g fill="#92d1f7"><path d="m312 464a24 24 0 1 1 24-24 24.027 24.027 0 0 1 -24 24zm0-32a8 8 0 1 0 8 8 8.009 8.009 0 0 0 -8-8z"/><path d="m352 464a8 8 0 0 1 -5.657-13.657l24-24a8 8 0 0 1 11.314 11.314l-24 24a7.976 7.976 0 0 1 -5.657 2.343z"/><circle cx="378" cy="458" r="6"/><circle cx="350" cy="426" r="6"/></g><path d="m392 264v8a136.818 136.818 0 0 1 -3.21 29.53l-28.79 10.47-12.3 14.75a92.364 92.364 0 0 1 -70.98 33.25h-31.79a92.389 92.389 0 0 1 -84.93-56h160l71.77-39.87z" fill="#cbcbcb"/><path d="m390.437 292.7q-.681 4.465-1.647 8.834l-28.79 10.466-12.3 14.75a92.364 92.364 0 0 1 -70.98 33.25h-31.79a92.389 92.389 0 0 1 -84.93-56h3.89a92.4 92.4 0 0 0 81.04 48h31.79a92.364 92.364 0 0 0 70.98-33.25l12.3-14.75 27.055-9.839a30.572 30.572 0 0 0 3.382-1.465z" fill="#b9b9b9"/></g></svg>