<svg id="Capa_1" enable-background="new 0 0 512 512" height="70" viewBox="0 0 512 512" width="70" xmlns="http://www.w3.org/2000/svg"><g><g><path d="m292.814 147.364c-.021-2.991-.028-5.568-.028-7.582 0-44.499-7.505-84.955-12.979-115.038h-47.615c-5.474 30.084-12.979 70.539-12.979 115.038 0 2.014-.006 4.592-.028 7.582z" fill="#f3f0f3"/><path d="m257.235 74.509c2.72 20.07 4.75 42.123 4.75 65.276 0 2.013.006 4.59.028 7.579h30.802c-.022-2.99-.028-5.566-.028-7.579 0-44.504-7.51-84.959-12.98-115.04l-47.615-.001c-1.949 10.71-4.153 22.75-6.186 35.805h15.244c8.073 0 14.901 5.961 15.985 13.96z" fill="#e2dee2"/><path d="m316.868 284.202c-.285-3.097-.585-6.148-.904-9.137-1.875-17.587-7.072-34.707-15.729-50.13-.524-.933-.991-1.83-1.374-2.661-5.504-11.937-6.049-63.201-6.074-81.089h-73.575c-.025 17.888-.57 69.151-6.074 81.089-.383.831-.85 1.728-1.374 2.661-8.657 15.423-13.854 32.543-15.729 50.13-.319 2.989-.619 6.04-.904 9.137z" fill="#d67f4f"/><path d="m191.529 439.623c.571 21.409 1.492 40.059 2.546 53.532.831 10.645 9.73 18.845 20.408 18.845h83.034c10.677 0 19.576-8.2 20.409-18.844 1.053-13.473 1.974-32.123 2.546-53.532h-128.943z" fill="#d67f4f"/><path d="m269.434 224.94c8.664 15.422 13.856 32.533 15.731 50.129.319 2.989.62 6.037.904 9.134h30.801c-.285-3.096-.585-6.146-.903-9.134-1.875-17.596-7.077-34.707-15.731-50.129-.525-.937-.989-1.834-1.37-2.668-5.501-11.93-6.047-63.191-6.078-81.086h-30.802c.031 17.894.577 69.156 6.078 81.086.381.834.854 1.731 1.37 2.668z" fill="#c76d3d"/><path d="m191.535 439.623c.312 11.691.725 22.579 1.211 32.227h81.259c7.887 0 14.14 6.672 13.615 14.541-.159 2.379-.322 4.638-.488 6.766-.834 10.643-9.735 18.843-20.408 18.843h30.792c10.683 0 19.573-8.2 20.408-18.842 1.053-13.475 1.974-32.126 2.545-53.535z" fill="#c76d3d"/><path d="m320.939 371.204c-.408-31.276-1.731-63.211-4.426-90.789h-121.026c-2.695 27.578-4.018 59.513-4.426 90.789z" fill="#f3f0f3"/><path d="m320.939 371.204c-.408-31.276-1.731-63.211-4.426-90.789h-30.803c2.695 27.575 4.021 59.51 4.432 90.789z" fill="#e2dee2"/><path d="m320.129 450.962h-128.258c-.886-25.971-1.257-57.175-.67-88.565h129.597c.588 31.39.217 62.594-.669 88.565z" fill="#fdd330"/><path d="m320.129 450.962h-30.792c.886-25.981 1.257-57.175.67-88.565h30.792c.587 31.39.216 62.594-.67 88.565z" fill="#f8c52d"/><g><path d="m283.695 33.365h-55.393c-5.902 0-10.531-5.066-10-10.944l1.198-13.279c.467-5.175 4.805-9.138 10-9.138h52.995c5.196 0 9.533 3.964 10 9.138l1.199 13.278c.533 5.879-4.097 10.945-9.999 10.945z" fill="#cbc5cb"/><path d="m283.695 33.366h-25.269c5.904 0 10.534-5.068 10.004-10.942l-1.203-13.287c-.46-5.17-4.804-9.137-9.995-9.137h25.259c5.201 0 9.535 3.967 10.004 9.137l1.203 13.287c.531 5.874-4.099 10.942-10.003 10.942z" fill="#b5adb6"/></g></g><path d="m292.547 319.075h-73.095c-4.267 0-7.726-3.459-7.726-7.726s3.459-7.726 7.726-7.726h73.095c4.268 0 7.726 3.459 7.726 7.726.001 4.267-3.458 7.726-7.726 7.726z" fill="#918291"/><path d="m264.732 344.99h-17.465c-4.267 0-7.726-3.459-7.726-7.726s3.459-7.726 7.726-7.726h17.465c4.268 0 7.726 3.459 7.726 7.726.001 4.267-3.458 7.726-7.726 7.726z" fill="#918291"/><g><path d="m273.184 390.058h-34.367c-2.845 0-5.151-2.306-5.151-5.151v-17.354c0-2.845 2.306-5.151 5.151-5.151h34.367c2.845 0 5.151 2.306 5.151 5.151v17.354c-.001 2.845-2.307 5.151-5.151 5.151z" fill="#e09977"/></g><path d="m264.732 431.628h-17.465c-4.267 0-7.726-3.459-7.726-7.726s3.459-7.726 7.726-7.726h17.465c4.268 0 7.726 3.459 7.726 7.726.001 4.267-3.458 7.726-7.726 7.726z" fill="#f3f0f3"/><g><path d="m295.033 418.665c-4.268 0-7.726-3.459-7.726-7.726v-4.255c0-4.267 3.459-7.726 7.726-7.726s7.726 3.459 7.726 7.726v4.255c.001 4.267-3.458 7.726-7.726 7.726z" fill="#e2dee2"/><path d="m216.966 418.665c-4.267 0-7.726-3.459-7.726-7.726v-4.255c0-4.267 3.459-7.726 7.726-7.726s7.726 3.459 7.726 7.726v4.255c.001 4.267-3.459 7.726-7.726 7.726z" fill="#f3f0f3"/></g></g></svg>