<svg id="Capa_1" enable-background="new 0 0 497 497" height="70" viewBox="0 0 497 497" width="70" xmlns="http://www.w3.org/2000/svg"><g><path d="m105 467v-32.574l248.213-248.213-35.355-35.355-248.213 248.213-23.624 75.695c3.422 12.803 15.097 22.234 28.979 22.234 16.569 0 30-13.431 30-30z" fill="#ffd185"/><path d="m83.787 445.787v-32.574l248.213-248.213-21.213-21.213-248.213 248.213h-32.574c-16.568 0-30 13.431-30 30s13.431 30 30 30h15v15c0 2.687.358 5.288 1.021 7.766 2.478.662 5.08 1.021 7.766 1.021 16.568 0 30-13.432 30-30z" fill="#ffe8c2"/><path d="m448.673 48.327-138.119 158.183c51.936 45.1 83.335 20.378 138.119 75.162 64.436-64.436 64.436-168.908 0-233.345z" fill="#ff3a2f"/><path d="m342.032 175.032-185.422 207.784 215.965-57.867c27.882-7.045 54.285-21.463 76.098-43.276z" fill="#ff5a35"/><path d="m215.327 48.327c-21.813 21.813-36.231 48.215-43.276 76.098l-57.867 215.965h42.426v42.426l198.398-75.434c24.911-9.12 49.342-24.323 70.757-45.273z" fill="#ff7a3c"/><path d="m425.765 262.109c.564-.552 1.134-1.09 1.694-1.649 64.436-64.436 73.934-159.411 21.213-212.132-64.436-64.436-168.909-64.436-233.345 0 58.335 58.335 26.517 90.157 84.853 148.492 50.237 50.237 80.81 33.619 125.585 65.289z" fill="#ff5a35"/><g fill="#ff3a2f"><circle cx="427.459" cy="69.541" r="7.5"/><circle cx="427.459" cy="111.967" r="7.5"/><circle cx="294.877" cy="85.45" r="7.5"/></g><circle cx="199.037" cy="297.963" fill="#ff5a35" r="7.5"/><circle cx="199.037" cy="255.537" fill="#ff5a35" r="7.5"/></g></svg>