<svg id="Capa_1" enable-background="new 0 0 512 512" height="70" viewBox="0 0 512 512" width="70" xmlns="http://www.w3.org/2000/svg"><g><path d="m413.859 244.064h-315.718v-239.076c0-2.755 2.233-4.988 4.988-4.988h305.742c2.755 0 4.988 2.233 4.988 4.988z" fill="#756e78"/><path d="m408.871 0h-18.895c2.755 0 4.988 2.233 4.988 4.988v64.898c0 2.308-2.78 3.405-4.409 1.769-.017-.017-.034-.034-.051-.051-1.475-1.477-3.102-2.82-4.838-3.993-5.419-3.661-11.747-5.597-18.303-5.597h-29.787c-5.8 0-11.252 1.517-15.981 4.176-.794.447-1.749.447-2.543 0-4.875-2.739-10.355-4.176-16.002-4.176h-29.788c-5.801 0-11.252 1.517-15.981 4.175-.794.447-1.749.447-2.543 0-4.875-2.739-10.355-4.176-16.002-4.176h-29.787c-5.801 0-11.252 1.517-15.981 4.175-.794.447-1.749.447-2.543 0-4.875-2.739-10.355-4.176-16.002-4.176h-29.787c-18.068 0-32.716 14.647-32.716 32.716v14.081c0 1.414-1.146 2.56-2.56 2.56h-11.219v132.692h296.823 18.895v-132.689-106.384c0-2.755-2.233-4.988-4.988-4.988z" fill="#665e66"/><g fill="#eab14d"><path d="m191.686 301.615h-64.314v-206.885c0-9.534 7.729-17.263 17.263-17.263h29.787c9.534 0 17.263 7.729 17.263 17.263v206.885z"/><path d="m256 301.615h-64.314v-206.885c0-9.534 7.729-17.263 17.263-17.263h29.787c9.534 0 17.263 7.729 17.263 17.263v206.885z"/><path d="m320.314 301.615h-64.314v-206.885c0-9.534 7.729-17.263 17.263-17.263h29.787c9.534 0 17.263 7.729 17.263 17.263v206.885z"/><path d="m384.628 301.615h-64.314v-206.885c0-9.534 7.729-17.263 17.263-17.263h29.787c9.534 0 17.263 7.729 17.263 17.263v206.885z"/></g><path d="m174.423 77.467h-17.312c9.534 0 17.263 7.729 17.263 17.263v206.884h17.312v-206.883c0-9.535-7.729-17.264-17.263-17.264z" fill="#e49542"/><path d="m238.737 77.467h-17.312c9.534 0 17.263 7.729 17.263 17.263v206.884h17.312v-206.883c0-9.535-7.729-17.264-17.263-17.264z" fill="#e49542"/><path d="m303.051 77.467h-17.312c9.534 0 17.263 7.729 17.263 17.263v206.884h17.312v-206.883c0-9.535-7.729-17.264-17.263-17.264z" fill="#e49542"/><path d="m367.364 77.467h-17.312c9.534 0 17.263 7.729 17.263 17.263v206.884h17.312v-206.883c.001-9.535-7.728-17.264-17.263-17.264z" fill="#e49542"/><path d="m428.092 130.229v367.115c0 8.094-6.562 14.656-14.656 14.656h-314.872c-8.094 0-14.656-6.562-14.656-14.656v-367.115c0-1.88 1.524-3.404 3.404-3.404h41.831c15.7 0 28.433 12.733 28.433 28.443v29.422c0 21.888 17.744 39.631 39.631 39.631h117.575c21.893 0 39.641-17.748 39.641-39.641v-29.412c0-15.709 12.734-28.443 28.443-28.443h41.821c1.881 0 3.405 1.524 3.405 3.404z" fill="#f1f4f6"/><g><path d="m404.702 126.825v385.175h8.734c8.094 0 14.656-6.562 14.656-14.656v-367.115c0-1.88-1.524-3.404-3.404-3.404z" fill="#dfeaef"/></g><path d="m428.092 130.229v140.481h-344.184v-140.481c0-1.88 1.524-3.404 3.404-3.404h41.831c15.7 0 28.433 12.733 28.433 28.443v29.422c0 21.888 17.744 39.631 39.631 39.631h117.575c21.893 0 39.641-17.748 39.641-39.641v-29.412c0-15.709 12.734-28.443 28.443-28.443h41.821c1.881 0 3.405 1.524 3.405 3.404z" fill="#d0e2e7"/><g><path d="m404.702 126.825v143.885h23.39v-140.481c0-1.88-1.524-3.404-3.404-3.404z" fill="#b4d0d5"/></g><path d="m250.123 433.694-166.215-98.485v162.135c0 8.094 6.562 14.656 14.656 14.656h314.872c8.094 0 14.656-6.562 14.656-14.656v-162.135l-166.215 98.485c-3.624 2.147-8.13 2.147-11.754 0z" fill="#dd636e"/><path d="m404.702 349.068v162.932h8.734c8.094 0 14.656-6.562 14.656-14.656v-162.135z" fill="#da4a54"/><g><path d="m314.074 332.093h-116.148c-4.267 0-7.726-3.459-7.726-7.726 0-4.268 3.459-7.726 7.726-7.726h116.149c4.268 0 7.726 3.459 7.726 7.726s-3.459 7.726-7.727 7.726z" fill="#665e66"/></g></g></svg>