<?xml version="1.0" encoding="iso-8859-1"?>
<!-- Generator: Adobe Illustrator 19.0.0, SVG Export Plug-In . SVG Version: 6.00 Build 0)  -->
<svg version="1.1" id="Capa_1" xmlns="http://www.w3.org/2000/svg" xmlns:xlink="http://www.w3.org/1999/xlink" x="0px" y="0px"
	height="70" width="70"
	 viewBox="0 0 464.021 464.021" style="enable-background:new 0 0 464.021 464.021;" xml:space="preserve">
<path style="fill:#DBDBDB;" d="M48.01,352h48v112h-48V352z"/>
<path style="fill:#744630;" d="M453.045,464.021L7.576,416.452l3.398-31.819l445.469,47.569L453.045,464.021z"/>
<path style="fill:#F7BA61;" d="M32.01,0h400c17.673,0,32,14.327,32,32v248c0,17.673-14.327,32-32,32h-400c-17.673,0-32-14.327-32-32
	V32C0.01,14.327,14.337,0,32.01,0z"/>
<path style="fill:#EBEBEB;" d="M368.01,280h-8c-35.346,0-64-28.654-64-64v-8c0.061-35.356,28.644-64.036,64-64.216h72V216
	C432.01,251.346,403.357,280,368.01,280z"/>
<path style="fill:#DC4D41;" d="M176.01,32h104c17.673,0,32,14.327,32,32v56l0,0h-168l0,0V64C144.01,46.327,158.337,32,176.01,32z"/>
<g>
	<path style="fill:#EA6B65;" d="M264.01,32l-64,88h-56l64-88H264.01z"/>
	<path style="fill:#EA6B65;" d="M256.01,120h56V64c-0.035-5.388-1.445-10.677-4.096-15.368L256.01,120z"/>
</g>
<circle style="fill:#744630;" cx="364.01" cy="212" r="36"/>
<path style="fill:#79A73A;" d="M50.274,80.464l2.4,1.6c5.373,3.58,12.371,3.58,17.744,0l2.4-1.6
	c7.107-4.736,9.241-14.22,4.848-21.544L61.61,40L45.426,58.92C41.033,66.244,43.167,75.728,50.274,80.464z"/>
<path style="fill:#F86688;" d="M356.29,40.152C342.61,53.536,342.746,63.808,345.45,73h61.12c0.912-2.915,1.397-5.946,1.44-9
	c0.003-17.673-14.322-32.002-31.995-32.005c-1.03,0-2.059,0.049-3.085,0.149C366.635,32.846,360.767,35.67,356.29,40.152
	L356.29,40.152z"/>
<path style="fill:#F790B0;" d="M380.29,79.152c-13.68,13.384-13.544,23.656-10.84,32.848h61.12c0.912-2.915,1.397-5.946,1.44-9
	c0.003-17.673-14.322-32.002-31.995-32.005c-1.03,0-2.059,0.049-3.085,0.149C390.635,71.846,384.767,74.67,380.29,79.152
	L380.29,79.152z"/>
<path style="fill:#A66444;" d="M7.578,396.823l445.469-47.569l3.398,31.819L10.976,428.643L7.578,396.823z"/>
<path style="fill:#DC4D41;" d="M64.01,192h104c17.673,0,32,14.327,32,32v56l0,0h-168l0,0v-56C32.01,206.327,46.337,192,64.01,192z"
	/>
<g>
	<path style="fill:#EA6B65;" d="M152.01,192l-64,88h-56l64-88H152.01z"/>
	<path style="fill:#EA6B65;" d="M144.01,280h56v-56c-0.035-5.388-1.445-10.677-4.096-15.368L144.01,280z"/>
	<path style="fill:#EA6B65;" d="M120.01,112h104c17.673,0,32,14.327,32,32v56l0,0h-168l0,0v-56
		C88.01,126.327,102.337,112,120.01,112z"/>
</g>
<g>
	<path style="fill:#DC4D41;" d="M208.01,112l-64,88h-56l64-88H208.01z"/>
	<path style="fill:#DC4D41;" d="M200.01,200h56v-56c-0.035-5.388-1.445-10.677-4.096-15.368L200.01,200z"/>
</g>
<g>
</g>
<g>
</g>
<g>
</g>
<g>
</g>
<g>
</g>
<g>
</g>
<g>
</g>
<g>
</g>
<g>
</g>
<g>
</g>
<g>
</g>
<g>
</g>
<g>
</g>
<g>
</g>
<g>
</g>
</svg>
