<svg id="icons" enable-background="new 0 0 64 64" height="70" viewBox="0 0 64 64" width="70" xmlns="http://www.w3.org/2000/svg"><path d="m11 1h42v58h-42z" fill="#545c66"/><path d="m15 5h34v34h-34z" fill="#ffce54"/><path d="m15 39h34v4h-34z" fill="#f6bb42"/><path d="m15 51h34v4h-34z" fill="#ffce54"/><path d="m15 47h34v4h-34z" fill="#f6bb42"/><path d="m11 59h42v4h-42z" fill="#656d78"/><path d="m15 43h34v4h-34z" fill="#ffce54"/><g fill="#f6bb42"><circle cx="40" cy="22.99" r="4"/><circle cx="24.5" cy="14.5" r="2.5"/><path d="m24 27c1.66 0 3 1.34 3 3s-1.34 3-3 3-3-1.34-3-3 1.34-3 3-3z"/></g><path d="m53.001 60.004h-42.002c-.553 0-1-.447-1-1v-58.004c0-.553.447-1 1-1h42.002c.553 0 1 .447 1 1v58.004c0 .553-.447 1-1 1zm-41.002-2h40.002v-56.004h-40.002z"/><path d="m53.001 64h-42.002c-.553 0-1-.447-1-1v-3.996c0-.553.447-1 1-1h42.002c.553 0 1 .447 1 1v3.996c0 .553-.447 1-1 1zm-41.002-2h40.002v-1.996h-40.002z"/><path d="m48.999 56h-34c-.553 0-1-.447-1-1v-4.001c0-.553.447-1 1-1s1 .447 1 1v3.001h32v-3.001c0-.553.447-1 1-1s1 .447 1 1v4.001c0 .553-.447 1-1 1z"/><path d="m48.999 52h-34c-.553 0-1-.447-1-1v-4.001c0-.553.447-1 1-1s1 .447 1 1v3.001h32v-3.001c0-.553.447-1 1-1s1 .447 1 1v4.001c0 .553-.447 1-1 1z"/><path d="m48.999 48h-34c-.553 0-1-.447-1-1v-4.001c0-.553.447-1 1-1s1 .447 1 1v3.001h32v-3.001c0-.553.447-1 1-1s1 .447 1 1v4.001c0 .553-.447 1-1 1z"/><path d="m48.999 44h-34c-.553 0-1-.447-1-1v-4.001c0-.553.447-1 1-1s1 .447 1 1v3.001h32v-3.001c0-.553.447-1 1-1s1 .447 1 1v4.001c0 .553-.447 1-1 1z"/><path d="m48.999 40h-34c-.553 0-1-.447-1-1v-34c0-.553.447-1 1-1h34c.553 0 1 .447 1 1v34c0 .553-.447 1-1 1zm-33-2h32v-32h-32z"/><path d="m24 34c-2.206 0-4-1.794-4-4s1.794-4 4-4 4 1.794 4 4-1.794 4-4 4zm0-6c-1.103 0-2 .897-2 2s.897 2 2 2 2-.897 2-2-.897-2-2-2z"/><path d="m39.999 27.992c-2.757 0-5-2.243-5-5s2.243-5 5-5 5 2.243 5 5-2.243 5-5 5zm0-8c-1.654 0-3 1.346-3 3s1.346 3 3 3 3-1.346 3-3-1.346-3-3-3z"/><path d="m24.5 18.002c-1.93 0-3.5-1.57-3.5-3.5s1.57-3.5 3.5-3.5 3.5 1.57 3.5 3.5-1.57 3.5-3.5 3.5zm0-5c-.827 0-1.5.673-1.5 1.5s.673 1.5 1.5 1.5 1.5-.673 1.5-1.5-.673-1.5-1.5-1.5z"/><path d="m41.029 33.999c-.553 0-1.005-.447-1.005-1s.442-1 .994-1h.011c.552 0 1 .447 1 1s-.448 1-1 1z"/><path d="m37.025 12.979c-.553 0-1.005-.447-1.005-1s.442-1 .994-1h.011c.552 0 1 .447 1 1s-.448 1-1 1z"/><path d="m30.019 22.988c-.553 0-1.005-.447-1.005-1s.442-1 .994-1h.011c.552 0 1 .447 1 1s-.449 1-1 1z"/></svg>