<svg id="Capa_1" enable-background="new 0 0 496.86 496.86" height="70" viewBox="0 0 496.86 496.86" width="70" xmlns="http://www.w3.org/2000/svg"><g id="_x3C_Group_x3E__38_"><path d="m465.185 265.036h-109.055l-10.08 3.2c-6.751 0-12.67 4.556-14.462 11.132l-11.404 42.894c-4.76 17.473-27.335 20.05-42.005 9.622l-76.366-54.283c-31.766-22.58-69.659-34.698-108.501-34.698h-83.31c-5.522 0-9.998 4.476-9.998 9.998v11.481l5.626 13.533c0 5.533 4.493 10.015 10.025 10l44.102-5c49.83.096 99.856 18.187 135.12 53.755l85.476 89.252c9.157 9.262 46.333 48.843 106.419 47.489 16.47-.371 55.164-1.243 83.681-32.247 4.838-5.26 9.082-6.247 12.336-11.818 6.357-10.883 9.977-22.023 11.97-32.109 2.917-14.757 2.729-29.961-.156-44.724l-14.704-75.258c-1.386-7.101-7.55-12.219-14.714-12.219z" fill="#ab7b64"/><path d="m278.18 331.882c14.67 10.43 35.14 3.01 39.9-14.46l11.24-41.25c1.79-6.58 7.71-11.14 14.46-11.14h12.35l-18.05 66.64c-4.76 17.48-25.23 24.9-39.9 14.47z" fill="#9a6a53"/><path d="m482.8 429.352c-3.26 5.57-7.23 11.07-12.07 16.33-28.52 31-67.21 31.87-83.69 32.24-60.08 1.36-100.93-37.91-110.09-47.17l-85.88-86.62c-35.26-35.57-83.03-55.59-132.86-55.69l-48.18-.07c-5.53.02-10.03-4.46-10.03-10v-13.99l78.21.06c49.83.1 97.6 20.12 132.86 55.69l85.88 86.62c9.16 9.26 50.01 48.53 110.09 47.17 15-.34 48.38-1.09 75.76-24.57z" fill="#9a6a53"/><path d="m242.355 285.426 3.207 2.347c5.799 4.243 7.061 12.382 2.82 18.182l-21.809 29.82-22.052 21.158c-4.243 5.801-15.228-11.522-10.987-17.322l11.541-25.255 19.095-26.11c4.242-5.801 12.385-7.064 18.185-2.82z" fill="#ffd064"/><path d="m226.57 335.772-17.38 23.77c-.41.55-.85 1.07-1.32 1.53-4.45 4.46-11.61 5.12-16.86 1.29l-3.21-2.35c-5.8-4.24-7.06-12.38-2.82-18.18l1.55-2.12 18.54-25.36c2.04 1.87 4.04 3.8 6 5.78z" fill="#ffc250"/><path d="m416.699 29.751c7.374 41.99-17.465 51.769-16.75 87.731-.559 32.247 25.288 52.633 16.75 87.731-1.079 6.888-7.598 11.606-14.562 10.54-5.018-.769-8.898-4.332-10.27-8.84-8.375-38.034-32.845-44.182-32.421-89.431-.127-45.557 24.444-51.115 32.215-88.961 1.682-6.772 8.598-10.914 15.445-9.25 5.208 1.265 8.874 5.534 9.593 10.48z" fill="#f7f9fa"/><path d="m414.1 211.112c-2.76 3.45-7.26 5.36-11.96 4.64-5.02-.77-8.9-4.33-10.27-8.84-8.38-38.03-32.85-44.18-32.42-89.43-.13-45.56 24.44-51.12 32.21-88.96 1.68-6.77 8.6-10.92 15.45-9.25 2.86.69 5.25 2.29 6.94 4.42-1.11 1.38-1.94 3.01-2.39 4.83-7.77 37.84-32.34 43.4-32.21 88.96-.43 45.25 24.04 51.4 32.42 89.43.47 1.54 1.23 2.96 2.23 4.2z" fill="#e9edf1"/></g></svg>