<svg id="Capa_1" enable-background="new 0 0 511.996 511.996" height="70" viewBox="0 0 511.996 511.996" width="70" xmlns="http://www.w3.org/2000/svg"><g><path d="m419.719 83.96-7.13 63.66c-7.74-.64-15.61.7-22.83 4.02l-.03.01c-6.06 2.79-12.58 4.18-19.1 4.18s-13.04-1.39-19.1-4.18c-12.12-5.57-26.06-5.57-38.18-.02l-.1.05c-12.11 5.55-26.05 5.55-38.16-.01l-.06-.03c-12.12-5.56-26.06-5.56-38.18 0l-.05.02c-12.12 5.57-26.06 5.57-38.18 0l-.05-.02c-12.12-5.56-26.06-5.56-38.18 0l-.05.02c-3.3 1.51-6.73 2.62-10.23 3.31-9.34 1.85-19.13.74-27.95-3.31l-.05-.02c-7.22-3.31-15.08-4.65-22.82-4.01l-7.13-63.67z" fill="#fef0db"/><path d="m150.109 154.97c-9.34 1.85-19.13.74-27.95-3.31l-.05-.02c-7.22-3.31-15.08-4.65-22.82-4.01l-7.13-63.67h50z" fill="#fbe2c1"/><path d="m412.589 147.62-10.73 95.96c-4.14.64-8.22 1.85-12.1 3.63l-.03.02c-6.05 2.78-12.57 4.17-19.08 4.17-6.53 0-13.05-1.39-19.12-4.18-12.12-5.56-26.06-5.57-38.18-.01l-.1.04c-12.11 5.56-26.05 5.55-38.16 0l-.06-.03c-12.12-5.57-26.06-5.57-38.18 0l-.05.02c-12.12 5.56-26.06 5.56-38.18 0l-.05-.02c-12.12-5.57-26.06-5.57-38.18 0l-.05.02c-12.12 5.56-26.06 5.56-38.18 0l-.05-.02c-3.88-1.78-7.95-3-12.09-3.64l-10.73-95.95c7.74-.64 15.6.7 22.82 4.01l.05.02c8.82 4.05 18.61 5.16 27.95 3.31 3.5-.69 6.93-1.8 10.23-3.31l.05-.02c12.12-5.56 26.06-5.56 38.18 0l.05.02c12.12 5.57 26.06 5.57 38.18 0l.05-.02c12.12-5.56 26.06-5.56 38.18 0l.06.03c12.11 5.56 26.05 5.56 38.16.01l.1-.05c6.05-2.77 12.56-4.16 19.07-4.16 6.52 0 13.04 1.39 19.11 4.18 12.12 5.57 26.08 5.57 38.2 0l.03-.01c7.22-3.32 15.09-4.66 22.83-4.02z" fill="#be5e2e"/><path d="m160.339 247.24c-12.12 5.56-26.06 5.56-38.18 0l-.05-.02c-3.88-1.78-7.95-3-12.09-3.64l-10.73-95.95c7.74-.64 15.6.7 22.82 4.01l.05.02c8.82 4.05 18.61 5.16 27.95 3.31z" fill="#ac4f27"/><path d="m401.859 243.58-12.11 108.22h-267.62l-12.11-108.22c4.14.64 8.21 1.86 12.09 3.64l.05.02c12.12 5.56 26.06 5.56 38.18 0l.05-.02c12.12-5.57 26.06-5.57 38.18 0l.05.02c12.12 5.56 26.06 5.56 38.18 0l.05-.02c12.12-5.57 26.06-5.57 38.18 0l.06.03c12.11 5.55 26.05 5.56 38.16 0l.1-.04c6.05-2.78 12.56-4.17 19.07-4.17 6.52 0 13.04 1.4 19.11 4.18 12.12 5.57 26.08 5.58 38.2.01l.03-.02c3.88-1.78 7.96-2.99 12.1-3.63z" fill="#fef0db"/><path d="m160.429 247.2 11.7 104.6h-50l-12.11-108.22c4.14.64 8.21 1.86 12.09 3.64l.05.02c12.12 5.56 26.06 5.56 38.18 0l.05-.02c.01-.01.03-.01.04-.02z" fill="#fbe2c1"/><path d="m87.495 45.734h336.888l-4.667 38.231h-327.554z" fill="#7e454d"/><path d="m142.159 83.96h-50l-4.66-38.23h50z" fill="#683840"/><g><g><path d="m217.349 351.8h172.4l38.52-344.3h37.94l-35.53 355.29c-1.54 15.34-14.44 27.02-29.85 27.02h-289.78c-15.41 0-28.31-11.68-29.85-27.02l-35.53-355.29h37.94l38.52 344.3h62.54z" fill="#98e5fb"/></g></g><path d="m275.008 466.266v-76.46h-38.23v76.46h-57.254c-10.607 0-19.206 8.599-19.206 19.206v19.024h191.242v-19.024c0-10.607-8.599-19.206-19.206-19.206z" fill="#98e5fb"/><path d="m466.209 0h-37.939c-3.819 0-7.029 2.87-7.453 6.666l-3.531 31.564h-70.076c-4.143 0-7.5 3.357-7.5 7.5s3.357 7.5 7.5 7.5h68.398l-2.599 23.234h-314.137l-2.6-23.234h218.247c4.143 0 7.5-3.357 7.5-7.5s-3.357-7.5-7.5-7.5h-219.925l-3.531-31.564c-.425-3.796-3.635-6.666-7.454-6.666h-37.94c-4.927.541-7.414 3.29-7.463 8.246l35.53 355.293c1.933 19.253 17.974 33.771 37.313 33.771h118.229v61.456h-49.754c-14.726 0-26.707 11.98-26.707 26.706v19.024c0 4.143 3.358 7.5 7.5 7.5h191.243c4.143 0 7.5-3.357 7.5-7.5v-19.024c0-14.726-11.98-26.706-26.707-26.706h-49.845v-61.456h118.32c19.339 0 35.38-14.518 37.313-33.773l35.529-355.29c.707-5.497-1.731-8.247-7.461-8.247zm-54.88 91.465-5.437 48.598c-18.648 1.042-31.929 13.659-51.232 4.773-14.11-6.485-30.308-6.495-44.434-.025-.068.031-.135.063-.201.096-10.086 4.591-21.629 4.588-31.707-.007-.055-.026-.108-.052-.163-.077-14.077-6.457-30.217-6.478-44.306-.058-.062.025-.123.053-.184.081-10.141 4.66-21.774 4.66-31.915 0-.046-.021-.104-.047-.161-.071-14.053-6.41-30.148-6.412-44.201-.01-20.075 8.672-32.074-3.614-51.401-4.693l-5.438-48.606h310.78zm-136.321 382.301h57.345c6.455 0 11.707 5.251 11.707 11.706v11.524h-176.242v-11.524c0-6.455 5.251-11.706 11.707-11.706h57.254c4.142 0 7.5-3.357 7.5-7.5v-68.956h23.23v68.956c-.001 4.142 3.357 7.5 7.499 7.5zm148.208-111.725c-1.159 11.555-10.784 20.269-22.388 20.269h-289.78c-11.603 0-21.228-8.714-22.387-20.266l-34.704-347.044h22.945l37.774 337.634c.425 3.796 3.634 6.666 7.454 6.666h62.54c4.142 0 7.5-3.357 7.5-7.5s-3.358-7.5-7.5-7.5h-55.833l-10.11-90.37c.085.038.172.068.256.107.044.021.1.045.156.069 14.051 6.407 30.144 6.411 44.2.009.061-.025.122-.053.183-.081 10.141-4.66 21.774-4.661 31.917.001.046.021.103.046.161.071 14.052 6.408 30.146 6.413 44.201.009.061-.026.121-.053.182-.081 10.108-4.646 21.699-4.66 31.818-.044 13.954 6.728 30.715 6.411 44.677.037 10.139-4.65 21.774-4.646 31.921.007 14.494 6.664 30.3 6.351 44.757-.127l-10.115 90.393h-165.692c-4.142 0-7.5 3.357-7.5 7.5s3.358 7.5 7.5 7.5h172.399c3.819 0 7.029-2.87 7.453-6.666l15.79-141.13c.461-4.116-2.503-7.827-6.619-8.287-4.112-.462-7.826 2.503-8.287 6.619l-3.082 27.541c-14.082 3.785-25.133 10.02-40.348 3.025-14.069-6.453-30.189-6.483-44.263-.088-.092.038-.184.078-.273.119-10.097 4.636-21.681 4.648-31.805.045-.051-.025-.103-.05-.154-.073-14.079-6.47-30.222-6.488-44.313-.06-.059.025-.117.051-.175.077-10.145 4.654-21.781 4.654-31.926 0-.044-.02-.098-.044-.154-.067-14.054-6.421-30.151-6.423-44.206-.01-15.547 6.794-26.27.885-40.512-2.963l-9.186-82.11c19.591 2.405 30.917 14.394 55.828 3.185 10.178-4.58 21.781-4.654 31.926 0 .043.02.098.043.153.067 14.054 6.42 30.152 6.425 44.208.009.058-.024.116-.05.173-.076 10.111-4.639 21.705-4.653 31.826-.046 13.404 6.575 31.369 6.592 44.769-.008 10.13-4.604 21.292-3.496 31.821.06 30.214 10.204 35.562-.715 55.8-3.2l-2.466 22.042c-.461 4.116 2.503 7.827 6.619 8.287 4.102.474 7.826-2.502 8.287-6.619l18.345-163.973h22.944z"/></g></svg>