<svg height="70" viewBox="0 0 512 512" width="70" xmlns="http://www.w3.org/2000/svg"><g id="flat"><path d="m340.668 248a8 8 0 0 1 -7.327-11.205 31.774 31.774 0 0 0 2.659-12.795v-8a8 8 0 0 1 16 0v8a47.682 47.682 0 0 1 -4 19.2 8 8 0 0 1 -7.332 4.8z" fill="#fbedbf"/><path d="m302.323 305.677h-14.323a8 8 0 0 1 0-16h14.323a65.669 65.669 0 0 0 65.669-65.677 8 8 0 1 1 16 0 81.668 81.668 0 0 1 -81.669 81.678z" fill="#fbedbf"/><path d="m128 184a8 8 0 0 1 8 8v33.679a8 8 0 0 1 -8 8 8 8 0 0 1 -8-8v-33.679a8 8 0 0 1 8-8z" fill="#027e2a"/><path d="m376 150.323a8 8 0 0 1 8 8v33.677a8 8 0 0 1 -8 8 8 8 0 0 1 -8-8v-33.677a8 8 0 0 1 8-8z" fill="#027e2a"/><path d="m224 248h64v240h-64z" fill="#009cf7"/><circle cx="256" cy="296" fill="#f26b32" r="16"/><circle cx="256" cy="296" fill="#0a71cd" r="8"/><path d="m224 200h64v48h-64z" fill="#8ed2ff"/><path d="m224 168h64v32h-64z" fill="#009cf7"/><path d="m232 120h48v48h-48z" fill="#0c82ed"/><path d="m248 200h16v48h-16z" fill="#0c82ed"/><path d="m312 80a8 8 0 0 1 0-16 32.036 32.036 0 0 0 32-32v-8a8 8 0 0 1 16 0v8a48.054 48.054 0 0 1 -48 48z" fill="#fbedbf"/><path d="m160 176a8 8 0 0 1 -8-8v-8a47.682 47.682 0 0 1 4-19.2 8 8 0 0 1 14.662 6.406 31.774 31.774 0 0 0 -2.662 12.794v8a8 8 0 0 1 -8 8z" fill="#fbedbf"/><path d="m440 120a57.887 57.887 0 0 0 -53.939 17.562 50.125 50.125 0 0 0 .569-40.762l-10.63-24.8-10.63 24.8a50.125 50.125 0 0 0 .569 40.759 57.887 57.887 0 0 0 -53.939-17.559l3.013 5.021a57.884 57.884 0 0 0 40.861 27.436 56.009 56.009 0 0 0 -21.981 21.27l-5.953 10.273 17.234-4.587a56.051 56.051 0 0 0 30.818-21.09 56.051 56.051 0 0 0 31.049 21.022l17.263 4.477-6.019-10.234a56.029 56.029 0 0 0 -22.129-21.136 57.884 57.884 0 0 0 40.831-27.431z" fill="#029532"/><path d="m64 264a57.887 57.887 0 0 0 53.939-17.562 50.125 50.125 0 0 0 -.569 40.759l10.63 24.803 10.63-24.8a50.125 50.125 0 0 0 -.569-40.759 57.887 57.887 0 0 0 53.939 17.559l-3.013-5.021a57.884 57.884 0 0 0 -40.861-27.436 56.009 56.009 0 0 0 21.981-21.27l5.953-10.273-17.234 4.587a56.051 56.051 0 0 0 -30.818 21.09 56.051 56.051 0 0 0 -31.049-21.022l-17.259-4.477 6.019 10.234a56.029 56.029 0 0 0 22.129 21.136 57.884 57.884 0 0 0 -40.831 27.431z" fill="#029532"/><path d="m128.009 169.677a8 8 0 0 1 -8-8 81.668 81.668 0 0 1 81.668-81.677h31.123a40.071 40.071 0 0 1 39.2-32h1.013a32.054 32.054 0 0 1 30.987-24h8a8 8 0 0 1 0 16h-8a16.019 16.019 0 0 0 -16 16 8 8 0 0 1 -8 8h-8a24.028 24.028 0 0 0 -24 24 8 8 0 0 1 -8 8h-38.323a65.669 65.669 0 0 0 -65.669 65.676 8 8 0 0 1 -7.999 8.001z" fill="#fbedbf"/><path d="m232 152h48v16h-48z" fill="#0a71cd"/><path d="m224 248h64v16h-64z" fill="#f26b32"/></g></svg>