<?xml version="1.0" encoding="iso-8859-1"?>
<!-- Generator: Adobe Illustrator 19.0.0, SVG Export Plug-In . SVG Version: 6.00 Build 0)  -->
<svg version="1.1" id="Layer_1" xmlns="http://www.w3.org/2000/svg" xmlns:xlink="http://www.w3.org/1999/xlink" x="0px" y="0px"
	height="70" width="70"
	 viewBox="0 0 511.992 511.992" style="enable-background:new 0 0 511.992 511.992;" xml:space="preserve">
<polygon style="fill:#AAB2BC;" points="462.496,133.502 18.502,141.502 51.002,164.502 462.496,162.002 485.995,148.002 "/>
<path style="fill:#FC6E51;" d="M430.997,131.346v-12l-11.672-20.327l-19.656-6.328l-15,9.656l-23-14.328l-12.672-34.328
	l-149.325,2.641h-42.671l-7.328,9.359l-1,20.656l-14,16.672c0,0-21-2.672-23.671-4.328c-2.672-1.656-22-3.344-22-3.344l-4,24.343
	l-7,15.328l-14.672,30l68.671,9l137.67,7.999l175.325-14.999l5.672-15L430.997,131.346z"/>
<g>
	<polygon style="fill:#E6E9ED;" points="371.325,182.017 235.328,187.329 100.001,177.329 8.003,156.002 12.003,189.329 
		90.673,204.001 189.328,209.329 330.654,212.001 497.323,182.017 497.323,156.002 	"/>
	<polygon style="fill:#E6E9ED;" points="323.326,423.334 237.328,425.334 123.329,418.678 24.002,399.334 12.675,399.334 
		12.675,429.99 115.329,450.677 228.671,457.333 304.67,457.333 381.325,451.989 445.996,443.989 501.323,428.334 501.323,399.334 	
		"/>
</g>
<polygon style="fill:#5D9CEC;" points="497.323,193.501 399.997,207.001 238.999,205.501 164.5,208.501 15.503,193.501 
	12.675,390.99 143.501,422.49 323.326,423.334 426.903,409.365 501.323,395.99 "/>
<polygon style="fill:#F5F7FA;" points="326.326,274.992 171.672,294.992 136.673,278.68 131.001,288.336 142.001,312.991 
	126.673,356.334 170.329,344.99 327.326,362.334 394.669,319.647 "/>
<path d="M437.262,119.205c0.047-0.625,0.062-1.25,0.062-1.875c0-17.671-14.327-31.999-31.999-31.999
	c-8.188,0-15.672,3.078-21.328,8.156c-3.656-3.266-8.047-5.703-12.922-7.031c1.453-3.656,2.25-7.625,2.25-11.797
	c0-17.672-14.328-31.999-32-31.999c-8.187,0-15.671,3.094-21.327,8.155c-5.656-5.062-13.141-8.155-21.327-8.155
	c-8.203,0-15.672,3.094-21.344,8.155c-5.656-5.062-13.125-8.155-21.328-8.155c-8.203,0-15.672,3.094-21.328,8.155
	c-5.672-5.062-13.141-8.155-21.344-8.155c-8.187,0-15.671,3.094-21.328,8.155c-5.656-5.062-13.141-8.155-21.328-8.155
	c-17.672,0-32,14.327-32,31.999c0,4.172,0.797,8.141,2.25,11.797c-4.859,1.328-9.266,3.766-12.922,7.031
	c-5.656-5.078-13.141-8.156-21.328-8.156c-17.672,0-32,14.328-32,31.999c0,0.625,0.016,1.25,0.062,1.875
	C28.562,126.924,0,137.564,0,149.33v277.316c0,23.562,114.607,42.686,255.996,42.686s255.996-19.124,255.996-42.686V149.33
	C511.995,137.564,483.448,126.924,437.262,119.205z M490.667,256.437v132.896c-8.094,2.969-21.75,7.219-42.39,11.469
	c-62.218,12.719-138.967,15.281-192.45,15.188c-53.249-0.094-129.795-2.844-192.06-15.469c-20.625-4.188-34.296-8.375-42.437-11.312
	V256.437v-58.03c30.578,9.781,100.249,25.344,234.465,25.594c1,0,1.984,0,2.969,0c132.654,0,201.513-15.547,231.902-25.438v57.874
	H490.667z M384.122,442.145c-13.609,1.344-27.953,2.469-42.797,3.375c-0.062-4.719-3.172-8.688-7.468-10.031
	c20.827-1.094,39.452-2.594,56.046-4.374c-3.5,1.749-5.906,5.374-5.906,9.53C383.997,441.177,384.044,441.677,384.122,442.145z
	 M121.22,430.74c16.984,1.843,36.109,3.405,57.577,4.562c-4.609,1.125-8.062,5.25-8.125,10.219
	c-14.844-0.906-29.187-2.031-42.796-3.375c0.078-0.469,0.125-0.969,0.125-1.5C128.001,436.145,125.188,432.27,121.22,430.74z
	 M184.906,435.614c21.328,1.031,44.89,1.656,70.89,1.719c0.062,0,0.125,0,0.203,0c-5.875,0-10.641,4.75-10.672,10.625
	c-18.125-0.125-36.015-0.594-53.374-1.344c0.031-0.312,0.047-0.625,0.047-0.969C192,441.02,189.031,437.083,184.906,435.614z
	 M255.999,437.333c0.938,0,1.844,0,2.766,0c24.734,0,47.249-0.562,67.718-1.5c-3.812,1.625-6.484,5.406-6.484,9.812
	c0,0.344,0.016,0.656,0.047,0.969c-17.358,0.75-35.249,1.219-53.374,1.344C266.64,442.083,261.874,437.333,255.999,437.333z
	 M490.667,170.658v5.328c-8.094,2.983-21.75,7.249-42.39,11.483c-62.218,12.719-138.967,15.281-192.45,15.188
	c-53.249-0.094-129.795-2.844-192.06-15.469C43.142,183,29.471,178.813,21.33,175.876v-5.219v-4.25
	c39.531,15.063,129.717,25.594,234.669,25.594c104.951,0,195.138-10.531,234.668-25.593V170.658z M160,160.002
	c5.891,0,10.672-4.781,10.672-10.672c5.875,0,10.656,4.781,10.656,10.672c0,3.5-1.703,6.594-4.312,8.547
	c-4.609-0.266-9.171-0.531-13.671-0.828C161.282,165.783,160,163.033,160,160.002z M202.672,160.002
	c5.89,0,10.656-4.781,10.656-10.672c5.891,0,10.672,4.781,10.672,10.672c0,4.734-3.109,8.75-7.406,10.141
	c-2.359-0.062-4.734-0.141-7.094-0.203C205.516,168.392,202.672,164.533,202.672,160.002z M245.327,160.002
	c5.891,0,10.672-4.781,10.672-10.672c5.875,0,10.672,4.781,10.672,10.672c0,5.875-4.797,10.656-10.672,10.656
	C250.124,170.658,245.327,165.877,245.327,160.002z M287.999,160.002c5.891,0,10.672-4.781,10.672-10.672
	c5.874,0,10.655,4.781,10.655,10.672c0,4.531-2.844,8.391-6.827,9.938c-2.359,0.062-4.734,0.141-7.094,0.203
	C291.108,168.752,287.999,164.736,287.999,160.002z M330.67,160.002c5.89,0,10.655-4.781,10.655-10.672
	c5.891,0,10.672,4.781,10.672,10.672c0,3.031-1.281,5.781-3.344,7.719c-4.5,0.297-9.062,0.562-13.671,0.828
	C332.373,166.596,330.67,163.502,330.67,160.002z M458.027,153.689c-0.672-3.406-1.891-6.594-3.547-9.516
	c8.281,1.797,14.874,3.547,20.124,5.156C470.136,150.689,464.667,152.158,458.027,153.689z M426.669,149.33
	c5.141,0,9.452,3.656,10.437,8.516c-5.718,1-12.015,1.984-18.905,2.953c-0.719,0.109-1.438,0.203-2.141,0.297
	c-0.047-0.359-0.062-0.719-0.062-1.094C421.888,160.002,426.669,155.221,426.669,149.33z M405.325,106.659
	c5.891,0,10.672,4.781,10.672,10.671c0,5.875-4.781,10.672-10.672,10.672c-5.875,0-10.656-4.797-10.656-10.672
	C400.56,117.33,405.325,112.549,405.325,106.659z M383.997,149.33c5.875,0,10.672,4.781,10.672,10.672
	c0,1.344-0.266,2.625-0.719,3.812c-6.156,0.672-12.484,1.297-18.953,1.875c-1.047-1.656-1.672-3.594-1.672-5.688
	C379.216,160.002,383.997,155.221,383.997,149.33z M362.669,106.659c5.875,0,10.656,4.781,10.656,10.671
	c0,5.875-4.781,10.672-10.656,10.672c-5.891,0-10.672-4.797-10.672-10.672C357.888,117.33,362.669,112.549,362.669,106.659z
	 M341.325,64.003c5.891,0,10.672,4.781,10.672,10.656s-4.781,10.672-10.672,10.672c-5.874,0-10.655-4.797-10.655-10.672
	C336.56,74.659,341.325,69.878,341.325,64.003z M319.998,106.659c5.875,0,10.672,4.781,10.672,10.671
	c0,5.875-4.797,10.672-10.672,10.672s-10.672-4.797-10.672-10.672C315.217,117.33,319.998,112.549,319.998,106.659z M298.671,64.003
	c5.874,0,10.655,4.781,10.655,10.656s-4.781,10.672-10.655,10.672c-5.891,0-10.672-4.797-10.672-10.672
	C293.89,74.659,298.671,69.878,298.671,64.003z M277.327,106.659c5.891,0,10.672,4.781,10.672,10.671
	c0,5.875-4.781,10.672-10.672,10.672c-5.875,0-10.656-4.797-10.656-10.672C272.561,117.33,277.327,112.549,277.327,106.659z
	 M255.999,64.003c5.875,0,10.672,4.781,10.672,10.656s-4.797,10.672-10.672,10.672c-5.875,0-10.672-4.797-10.672-10.672
	C251.218,74.659,255.999,69.878,255.999,64.003z M234.671,106.659c5.875,0,10.656,4.781,10.656,10.671
	c0,5.875-4.781,10.672-10.656,10.672c-5.891,0-10.672-4.797-10.672-10.672C229.89,117.33,234.671,112.549,234.671,106.659z
	 M213.328,64.003c5.891,0,10.672,4.781,10.672,10.656s-4.781,10.672-10.672,10.672c-5.875,0-10.656-4.797-10.656-10.672
	C208.562,74.659,213.328,69.878,213.328,64.003z M192,106.659c5.875,0,10.672,4.781,10.672,10.671
	c0,5.875-4.797,10.672-10.672,10.672s-10.672-4.797-10.672-10.672C187.219,117.33,192,112.549,192,106.659z M170.672,64.003
	c5.875,0,10.656,4.781,10.656,10.656s-4.781,10.672-10.656,10.672c-5.891,0-10.672-4.797-10.672-10.672
	C165.891,74.659,170.672,69.878,170.672,64.003z M149.329,106.659c5.891,0,10.672,4.781,10.672,10.671
	c0,5.875-4.781,10.672-10.672,10.672c-5.875,0-10.656-4.797-10.656-10.672C144.563,117.33,149.329,112.549,149.329,106.659z
	 M128.001,149.33c5.875,0,10.672,4.781,10.672,10.672c0,2.094-0.625,4.031-1.672,5.688c-6.469-0.578-12.797-1.203-18.953-1.875
	c-0.453-1.188-0.719-2.469-0.719-3.812C123.22,160.002,128.001,155.221,128.001,149.33z M106.673,106.659
	c5.875,0,10.656,4.781,10.656,10.671c0,5.875-4.781,10.672-10.656,10.672c-5.891,0-10.672-4.797-10.672-10.672
	C101.892,117.33,106.673,112.549,106.673,106.659z M96.001,160.002c0,0.375-0.016,0.734-0.062,1.094
	c-0.703-0.094-1.422-0.188-2.141-0.297c-4.969-0.703-9.625-1.406-13.984-2.125c3.281-1.812,5.515-5.328,5.515-9.344
	C91.22,149.33,96.001,154.111,96.001,160.002z M57.518,144.174c-1.656,2.922-2.875,6.109-3.547,9.516
	c-6.64-1.531-12.109-3-16.578-4.359C42.643,147.721,49.236,145.971,57.518,144.174z M63.83,433.114
	c0.109-0.625,0.172-1.249,0.172-1.874c0-5.906-4.781-10.656-10.672-10.656c-4.859,0-8.968,3.25-10.234,7.719
	c-12.078-3.312-18.547-6.188-21.766-7.938v-8.625c17.359,5.562,47.281,12.969,94.42,18.375c-4.875,0.719-8.656,4.749-9.046,9.718
	c-4.391-0.562-8.703-1.125-12.906-1.719C82.142,436.489,72.236,434.802,63.83,433.114z M405.294,439.833
	c-0.359-4.656-3.688-8.437-8.078-9.53c23.484-2.719,42.655-5.938,58.093-9.188c-4.25,1.406-7.312,5.406-7.312,10.125
	c0,0.625,0.062,1.249,0.172,1.874c-8.406,1.688-18.312,3.375-29.968,5C413.997,438.708,409.685,439.27,405.294,439.833z
	 M468.901,428.303c-1.266-4.469-5.374-7.719-10.233-7.719c-0.359,0-0.703,0-1.047,0.031c14.077-3.031,24.921-6.062,33.046-8.719
	v8.469C487.448,422.115,480.979,424.99,468.901,428.303z"/>
<path d="M106.767,245.656l21.656,71.335l-21,55.655l63.155-17.062c0,0,125.749,17.406,149.419,17.406s84.858-34.812,84.858-53.343
	c0-18.499-45.422-53.319-84.858-53.319c-39.436,0-149.418,17.227-149.418,17.227L106.767,245.656z M319.998,287.648
	c12.391,0,27.577,5.031,41.702,13.75c10.703,6.624,17.234,13.218,20.234,17.249c-3.906,4.156-12.469,11.281-26.547,19.187
	c-16.984,9.531-30.921,13.812-35.39,13.812c-16.28,0-96.53-10.281-146.498-17.187l-4.312-0.594l-4.188,1.125l-22.89,6.187
	l6.281-16.655l2.562-6.781l-2.109-6.969l-5.687-18.687l16.531,9.812l6.594,3.905l7.594-1.188
	C174.954,304.46,282.64,287.648,319.998,287.648z"/>
<path d="M330.67,319.647c5.89,0,10.655-4.781,10.655-10.656c0-5.905-4.766-10.655-10.655-10.655c-5.891,0-10.672,4.75-10.672,10.655
	C319.998,314.866,324.779,319.647,330.67,319.647z"/>
<g>
</g>
<g>
</g>
<g>
</g>
<g>
</g>
<g>
</g>
<g>
</g>
<g>
</g>
<g>
</g>
<g>
</g>
<g>
</g>
<g>
</g>
<g>
</g>
<g>
</g>
<g>
</g>
<g>
</g>
</svg>
