<svg id="Capa_1" enable-background="new 0 0 511.892 511.892" height="70" viewBox="0 0 511.892 511.892" width="70" xmlns="http://www.w3.org/2000/svg"><g><path d="m456.454 55.203c-87.715-87.73-249.463-68.687-360.615 42.422-77.256 77.3-111.057 184.175-89.407 272.3 4.658 18.97 18.809 33.442 37.822 38.745 19.131 5.435 39.727 0 53.73-14.019 4.982-5.001 8.419-10.631 11.032-16.483l-12.174-19.288 22.712-14.02c6.616-15.522 15.189-31.578 29.312-45.701 1.635-1.635 3.32-2.919 4.973-4.448l-1.077-24.615 24.712 6.171c28.596-17.748 55.552-20.198 66.87-8.925 11.277 11.288 8.826 38.267-8.945 66.877l6.103 24.646-24.56-1.009c-1.518 1.641-2.792 3.312-4.415 4.935-14.125 14.125-30.2 23.081-45.727 29.704l-4.98 22.716-28.191-12.22c-5.896 2.615-11.574 6.063-16.61 11.107-13.975 13.975-19.365 34.556-14.004 53.701 5.303 19.014 19.775 33.135 38.76 37.793 17.021 4.189 34.775 6.226 52.852 6.226 75.498 0 157.09-33.655 219.404-95.984 53.35-53.35 87.393-119.839 95.83-187.207 8.615-68.805-10.37-130.387-53.407-173.424z" fill="#ff785d"/><path d="m235.4 334.219 6.103 24.646-24.56-1.009c-1.518 1.641-2.792 3.312-4.415 4.935-14.125 14.125-30.2 23.081-45.727 29.704l-4.98 22.716-28.191-12.22c-5.896 2.615-11.574 6.063-16.61 11.107-13.975 13.975-19.365 34.556-14.004 53.701 5.303 19.014 19.775 33.135 38.76 37.793 17.021 4.189 34.775 6.226 52.852 6.226 75.498 0 157.09-33.655 219.404-95.984 53.35-53.35 87.393-119.839 95.83-187.207 8.613-68.804-10.371-130.386-53.408-173.423l-212.109 212.138c11.277 11.288 8.826 38.267-8.945 66.877z" fill="#e64d2e"/><g><path d="m212.821 445.211c4.57-6.914 2.666-16.216-4.248-20.786-14.568-9.642-28.378-20.515-41.772-31.93-7.339 3.131-14.584 5.625-21.392 6.603-4.048.584-7.932 2.188-11.779 3.893 18.365 16.943 37.74 32.78 58.42 46.454 6.944 4.589 16.251 2.639 20.771-4.234z" fill="#ff785d"/><path d="m119.555 344.859c-11.396-13.378-22.28-27.175-31.912-41.746-4.57-6.929-13.916-8.818-20.801-4.233-6.885 4.57-8.789 13.872-4.219 20.786 13.683 20.7 29.465 40.153 46.393 58.502 1.734-3.884 3.342-7.815 3.939-11.906.978-6.815 3.472-14.064 6.6-21.403z" fill="#ffa173"/><path d="m312.079 412.39c7.575 2.98 16.37-.697 19.424-8.525 3.018-7.72-.82-16.421-8.525-19.424-31.69-12.35-60.996-29.357-87.578-50.222-4.885 7.866-11.223 15.817-18.457 23.637 28.883 22.65 60.727 41.127 95.136 54.534z" fill="#ff785d"/><path d="m127.187 188.621c-3.018-7.72-11.719-11.543-19.424-8.525-7.705 3.003-11.543 11.704-8.525 19.424 13.447 34.512 31.956 66.315 54.602 95.191 7.82-7.227 15.771-13.563 23.635-18.444-20.867-26.575-37.909-55.863-50.288-87.646z" fill="#ffa173"/></g><path d="m432.196 227.351c-33.214-3.105-63.457-16.421-88.923-37.742l42.252-42.261c12.22 9.258 25.966 15.507 41.047 18.596 8.318 1.663 16.077-3.704 17.725-11.675 1.641-8.13-3.574-16.055-11.689-17.71-9.172-1.875-17.379-6.024-25.111-11.188l6.537-6.537c5.858-5.858 5.856-15.35.002-21.207-.002-.002 0-.002-.002-.004-5.859-5.859-15.352-5.859-21.211 0l-6.535 6.537c-5.186-7.766-9.348-16.016-11.219-25.243-1.641-8.13-9.463-13.359-17.695-11.733-8.115 1.655-13.359 9.565-11.719 17.681 3.063 15.172 9.353 28.984 18.666 41.266l-42.257 42.266c-21.352-25.507-34.68-55.854-37.786-89.246-.791-8.262-8.232-14.429-16.318-13.55-8.262.776-14.326 8.086-13.564 16.333 3.777 40.432 20.149 77.115 46.459 107.675l-44.857 44.866c-26.951-31.108-46.73-70.974-56.68-117.253-1.758-8.115-9.639-13.315-17.842-11.514-8.086 1.743-13.242 9.712-11.514 17.812 13.112 60.917 41.444 110.878 74.385 143.818 38.383 38.383 91.37 63.091 143.73 74.355 8.058 1.741 16.078-3.358 17.842-11.514 1.729-8.101-3.428-16.069-11.514-17.812-46.254-9.95-86.102-29.729-117.198-56.68l44.863-44.872c30.529 26.265 67.081 42.64 107.316 46.415.469.044.967.059 1.436.059 7.646 0 14.18-5.83 14.912-13.608.759-8.244-5.305-15.553-13.538-16.33z" fill="#ffa173"/><path d="m405.917 330.183c1.729-8.101-3.428-16.069-11.514-17.812-46.254-9.95-86.102-29.729-117.198-56.68l44.863-44.872c30.529 26.265 67.081 42.64 107.316 46.415.469.044.967.059 1.436.059 7.646 0 14.18-5.83 14.912-13.608.762-8.247-5.303-15.557-13.535-16.333-33.214-3.105-63.457-16.421-88.923-37.742l42.252-42.261c12.22 9.258 25.966 15.507 41.047 18.596 8.318 1.663 16.077-3.704 17.725-11.675 1.641-8.13-3.574-16.055-11.689-17.71-9.172-1.875-17.379-6.024-25.111-11.188l6.537-6.537c5.858-5.858 5.856-15.35.002-21.207l-169.692 169.714c38.383 38.383 91.37 63.091 143.73 74.355 8.059 1.741 16.079-3.358 17.842-11.514z" fill="#ff785d"/></g></svg>