<svg height="70" viewBox="-64 0 512 512" width="70" xmlns="http://www.w3.org/2000/svg"><path d="m224 296-64 64v-64zm0 0" fill="#965353"/><path d="m320 360v72c0 8.800781-7.199219 16-16.078125 16v-.078125h-31.921875c-8.878906 0-16-7.128906-16-15.921875v-8.078125zm0 0" fill="#965353"/><path d="m320 296v64l-64 63.921875v-63.921875zm0 0" fill="#844747"/><path d="m320 296-64 64v-64zm0 0" fill="#965353"/><path d="m224 296v64l-64 63.921875v-63.921875zm0 0" fill="#844747"/><path d="m224 360v72c0 8.800781-7.199219 16-16 16v-.078125h-32c-8.878906 0-16-7.128906-16-15.921875v-8.078125zm0 0" fill="#965353"/><path d="m128 360v72c0 8.800781-7.199219 16-16 16v-.078125h-32c-8.878906 0-16-7.128906-16-15.921875v-8.078125zm0 0" fill="#965353"/><path d="m128 296v64l-64 63.921875v-63.921875zm0 0" fill="#844747"/><path d="m128 296-64 64v-64zm0 0" fill="#965353"/><path d="m128 104-64 64v-72c0-17.679688 14.320312-32 32-32s32 14.320312 32 32zm0 0" fill="#965353"/><path d="m128 104v64l-64 64v-64zm0 0" fill="#844747"/><path d="m128 168v64h-64zm0 0" fill="#965353"/><path d="m224 168v64h-64zm0 0" fill="#965353"/><path d="m224 104v64l-64 64v-64zm0 0" fill="#844747"/><path d="m224 96v8l-64 64v-72c0-17.679688 14.320312-32 32-32s32 14.320312 32 32zm0 0" fill="#965353"/><path d="m320 96v8l-64 64v-72c0-17.679688 14.320312-32 32-32s32 14.320312 32 32zm0 0" fill="#965353"/><path d="m320 104v64l-64 64v-64zm0 0" fill="#844747"/><path d="m320 168v64h-64zm0 0" fill="#965353"/><g fill="#ed5565"><path d="m256 232h64v64h-64zm0 0"/><path d="m160 232h64v64h-64zm0 0"/><path d="m64 232h64v64h-64zm0 0"/></g><path d="m160 432c0 8.800781 7.121094 15.921875 16 15.921875h32v.078125c8.800781 0 16-7.199219 16-16v-336c0-17.679688-14.320312-32-32-32s-32 14.320312-32 32zm96 0c0 8.800781 7.121094 15.921875 16 15.921875h31.921875v.078125c8.878906 0 16.078125-7.199219 16.078125-16v-336c0-17.679688-14.320312-32-32-32s-32 14.320312-32 32zm-192 0c0 8.800781 7.121094 15.921875 16 15.921875h32v.078125c8.800781 0 16-7.199219 16-16v-336c0-17.679688-14.320312-32-32-32s-32 14.320312-32 32zm288-400v447.921875h-320v-447.921875zm0 0" fill="#f7c292"/><path d="m8 8h368v496h-368zm24 24v447.921875h320v-447.921875zm0 0" fill="#ffd2a6"/><path d="m376 512h-368c-4.425781 0-8-3.574219-8-8v-496c0-4.425781 3.574219-8 8-8h368c4.425781 0 8 3.574219 8 8v496c0 4.425781-3.574219 8-8 8zm-360-16h352v-480h-352zm0 0"/><path d="m351.984375 487.976562h-319.96875c-4.421875 0-8-3.578124-8-8v-447.953124c0-4.421876 3.578125-8 8-8h319.96875c4.421875 0 8 3.578124 8 8v447.953124c0 4.421876-3.578125 8-8 8zm-311.96875-16h303.96875v-431.953124h-303.96875zm0 0"/><path d="m128 104c-4.425781 0-8-3.574219-8-8 0-13.230469-10.769531-24-24-24s-24 10.769531-24 24c0 4.425781-3.574219 8-8 8s-8-3.574219-8-8c0-22.054688 17.945312-40 40-40s40 17.945312 40 40c0 4.425781-3.574219 8-8 8zm0 0"/><path d="m128 439.984375c-4.425781 0-8-3.578125-8-8v-335.984375c0-4.425781 3.574219-8 8-8s8 3.574219 8 8v335.984375c0 4.421875-3.574219 8-8 8zm0 0"/><path d="m64 439.984375c-4.425781 0-8-3.578125-8-8v-335.984375c0-4.425781 3.574219-8 8-8s8 3.574219 8 8v335.984375c0 4.421875-3.574219 8-8 8zm0 0"/><path d="m80 455.976562c-13.230469 0-24-10.769531-24-23.992187 0-4.425781 3.574219-8 8-8s8 3.574219 8 8c0 4.40625 3.585938 7.992187 8 7.992187 4.425781 0 8 3.574219 8 8 0 4.421876-3.574219 8-8 8zm0 0"/><path d="m111.984375 456c-4.425781 0-8-3.574219-8-8s3.574219-8 8-8c4.421875 0 8.015625-3.59375 8.015625-8.015625 0-4.425781 3.574219-8 8-8s8 3.574219 8 8c0 13.238281-10.777344 24.015625-24.015625 24.015625zm0 0"/><path d="m111.984375 455.976562h-31.984375c-4.425781 0-8-3.578124-8-8 0-4.425781 3.574219-8 8-8h31.984375c4.421875 0 8 3.574219 8 8 0 4.421876-3.578125 8-8 8zm0 0"/><path d="m64 431.976562c-2.046875 0-4.097656-.785156-5.65625-2.34375-3.128906-3.128906-3.128906-8.183593 0-11.3125l64-63.984374c3.128906-3.128907 8.183594-3.128907 11.3125 0 3.128906 3.128906 3.128906 8.183593 0 11.3125l-64 63.984374c-1.558594 1.558594-3.609375 2.34375-5.65625 2.34375zm0 0"/><path d="m64 368.023438c-2.046875 0-4.097656-.785157-5.65625-2.34375-3.128906-3.128907-3.128906-8.183594 0-11.3125l64-64c3.128906-3.128907 8.183594-3.128907 11.3125 0 3.128906 3.128906 3.128906 8.183593 0 11.3125l-64 64c-1.558594 1.558593-3.609375 2.34375-5.65625 2.34375zm0 0"/><path d="m64 240.023438c-2.046875 0-4.097656-.785157-5.65625-2.34375-3.128906-3.128907-3.128906-8.183594 0-11.3125l64-64c3.128906-3.128907 8.183594-3.128907 11.3125 0 3.128906 3.128906 3.128906 8.183593 0 11.3125l-64 64c-1.558594 1.558593-3.609375 2.34375-5.65625 2.34375zm0 0"/><path d="m64 176.023438c-2.046875 0-4.097656-.785157-5.65625-2.34375-3.128906-3.128907-3.128906-8.183594 0-11.3125l64-64c3.128906-3.128907 8.183594-3.128907 11.3125 0 3.128906 3.128906 3.128906 8.183593 0 11.3125l-64 64c-1.558594 1.558593-3.609375 2.34375-5.65625 2.34375zm0 0"/><path d="m128 240.023438h-64c-4.425781 0-8-3.574219-8-8 0-4.421876 3.574219-8 8-8h64c4.425781 0 8 3.578124 8 8 0 4.425781-3.574219 8-8 8zm0 0"/><path d="m128 304.023438h-64c-4.425781 0-8-3.574219-8-8 0-4.421876 3.574219-8 8-8h64c4.425781 0 8 3.578124 8 8 0 4.425781-3.574219 8-8 8zm0 0"/><path d="m103.984375 271.992188h-15.984375c-4.425781 0-8-3.578126-8-8 0-4.425782 3.574219-8 8-8h15.984375c4.421875 0 8 3.574218 8 8 0 4.421874-3.578125 8-8 8zm0 0"/><path d="m224 104c-4.425781 0-8-3.574219-8-8 0-13.230469-10.769531-24-24-24s-24 10.769531-24 24c0 4.425781-3.574219 8-8 8s-8-3.574219-8-8c0-22.054688 17.945312-40 40-40s40 17.945312 40 40c0 4.425781-3.574219 8-8 8zm0 0"/><path d="m224 439.984375c-4.425781 0-8-3.578125-8-8v-335.984375c0-4.425781 3.574219-8 8-8s8 3.574219 8 8v335.984375c0 4.421875-3.574219 8-8 8zm0 0"/><path d="m160 439.984375c-4.425781 0-8-3.578125-8-8v-335.984375c0-4.425781 3.574219-8 8-8s8 3.574219 8 8v335.984375c0 4.421875-3.574219 8-8 8zm0 0"/><path d="m175.984375 455.976562c-13.222656 0-23.984375-10.769531-23.984375-23.992187 0-4.425781 3.574219-8 8-8s8 3.574219 8 8c0 4.40625 3.574219 7.992187 7.984375 7.992187 4.421875 0 8 3.574219 8 8 0 4.421876-3.578125 8-8 8zm0 0"/><path d="m207.984375 456c-4.425781 0-8-3.574219-8-8s3.574219-8 8-8c4.421875 0 8.015625-3.59375 8.015625-8.015625 0-4.425781 3.574219-8 8-8s8 3.574219 8 8c0 13.238281-10.777344 24.015625-24.015625 24.015625zm0 0"/><path d="m207.984375 455.976562h-32c-4.425781 0-8-3.578124-8-8 0-4.425781 3.574219-8 8-8h32c4.421875 0 8 3.574219 8 8 0 4.421876-3.578125 8-8 8zm0 0"/><path d="m160 431.976562c-2.046875 0-4.097656-.785156-5.65625-2.34375-3.128906-3.128906-3.128906-8.183593 0-11.3125l64-63.984374c3.128906-3.128907 8.183594-3.128907 11.3125 0 3.128906 3.128906 3.128906 8.183593 0 11.3125l-64 63.984374c-1.558594 1.558594-3.609375 2.34375-5.65625 2.34375zm0 0"/><path d="m160 368.023438c-2.046875 0-4.097656-.785157-5.65625-2.34375-3.128906-3.128907-3.128906-8.183594 0-11.3125l64-64c3.128906-3.128907 8.183594-3.128907 11.3125 0 3.128906 3.128906 3.128906 8.183593 0 11.3125l-64 64c-1.558594 1.558593-3.609375 2.34375-5.65625 2.34375zm0 0"/><path d="m160 240.023438c-2.046875 0-4.097656-.785157-5.65625-2.34375-3.128906-3.128907-3.128906-8.183594 0-11.3125l64-64c3.128906-3.128907 8.183594-3.128907 11.3125 0 3.128906 3.128906 3.128906 8.183593 0 11.3125l-64 64c-1.558594 1.558593-3.609375 2.34375-5.65625 2.34375zm0 0"/><path d="m160 176.023438c-2.046875 0-4.097656-.785157-5.65625-2.34375-3.128906-3.128907-3.128906-8.183594 0-11.3125l64-64c3.128906-3.128907 8.183594-3.128907 11.3125 0 3.128906 3.128906 3.128906 8.183593 0 11.3125l-64 64c-1.558594 1.558593-3.609375 2.34375-5.65625 2.34375zm0 0"/><path d="m224 240.023438h-64c-4.425781 0-8-3.574219-8-8 0-4.421876 3.574219-8 8-8h64c4.425781 0 8 3.578124 8 8 0 4.425781-3.574219 8-8 8zm0 0"/><path d="m224 304.023438h-64c-4.425781 0-8-3.574219-8-8 0-4.421876 3.574219-8 8-8h64c4.425781 0 8 3.578124 8 8 0 4.425781-3.574219 8-8 8zm0 0"/><path d="m199.984375 271.992188h-16c-4.425781 0-8-3.578126-8-8 0-4.425782 3.574219-8 8-8h16c4.421875 0 8 3.574218 8 8 0 4.421874-3.578125 8-8 8zm0 0"/><path d="m319.984375 104c-4.425781 0-8-3.574219-8-8 0-13.230469-10.769531-24-24-24s-24 10.769531-24 24c0 4.425781-3.578125 8-8 8-4.425781 0-8-3.574219-8-8 0-22.054688 17.945313-40 40-40s40 17.945312 40 40c0 4.425781-3.578125 8-8 8zm0 0"/><path d="m319.984375 439.984375c-4.425781 0-8-3.578125-8-8v-335.984375c0-4.425781 3.574219-8 8-8 4.421875 0 8 3.574219 8 8v335.984375c0 4.421875-3.578125 8-8 8zm0 0"/><path d="m255.984375 439.984375c-4.425781 0-8-3.578125-8-8v-335.984375c0-4.425781 3.574219-8 8-8 4.421875 0 8 3.574219 8 8v335.984375c0 4.421875-3.578125 8-8 8zm0 0"/><path d="m271.984375 455.976562c-13.230469 0-24-10.769531-24-23.992187 0-4.425781 3.574219-8 8-8 4.421875 0 8 3.574219 8 8 0 4.40625 3.582031 7.992187 8 7.992187 4.421875 0 8 3.574219 8 8 0 4.421876-3.578125 8-8 8zm0 0"/><path d="m303.96875 456c-4.425781 0-8-3.574219-8-8s3.574219-8 8-8c4.421875 0 8.015625-3.59375 8.015625-8.015625 0-4.425781 3.574219-8 8-8 4.421875 0 8 3.574219 8 8 0 13.238281-10.777344 24.015625-24.015625 24.015625zm0 0"/><path d="m303.96875 455.976562h-31.984375c-4.425781 0-8-3.578124-8-8 0-4.425781 3.574219-8 8-8h31.984375c4.421875 0 8 3.574219 8 8 0 4.421876-3.578125 8-8 8zm0 0"/><path d="m255.984375 431.976562c-2.046875 0-4.097656-.785156-5.65625-2.34375-3.128906-3.128906-3.128906-8.183593 0-11.3125l64-63.984374c3.128906-3.128907 8.183594-3.128907 11.3125 0 3.128906 3.128906 3.128906 8.183593 0 11.3125l-64 63.984374c-1.5625 1.558594-3.609375 2.34375-5.65625 2.34375zm0 0"/><path d="m255.984375 368.023438c-2.046875 0-4.097656-.785157-5.65625-2.34375-3.128906-3.128907-3.128906-8.183594 0-11.3125l64-64c3.128906-3.128907 8.183594-3.128907 11.3125 0 3.128906 3.128906 3.128906 8.183593 0 11.3125l-64 64c-1.5625 1.558593-3.609375 2.34375-5.65625 2.34375zm0 0"/><path d="m255.984375 240.023438c-2.046875 0-4.097656-.785157-5.65625-2.34375-3.128906-3.128907-3.128906-8.183594 0-11.3125l64-64c3.128906-3.128907 8.183594-3.128907 11.3125 0 3.128906 3.128906 3.128906 8.183593 0 11.3125l-64 64c-1.5625 1.558593-3.609375 2.34375-5.65625 2.34375zm0 0"/><path d="m255.984375 176.023438c-2.046875 0-4.097656-.785157-5.65625-2.34375-3.128906-3.128907-3.128906-8.183594 0-11.3125l64-64c3.128906-3.128907 8.183594-3.128907 11.3125 0 3.128906 3.128906 3.128906 8.183593 0 11.3125l-64 64c-1.5625 1.558593-3.609375 2.34375-5.65625 2.34375zm0 0"/><path d="m319.984375 240.023438h-64c-4.425781 0-8-3.574219-8-8 0-4.421876 3.574219-8 8-8h64c4.421875 0 8 3.578124 8 8 0 4.425781-3.578125 8-8 8zm0 0"/><path d="m319.984375 304.023438h-64c-4.425781 0-8-3.574219-8-8 0-4.421876 3.574219-8 8-8h64c4.421875 0 8 3.578124 8 8 0 4.425781-3.578125 8-8 8zm0 0"/><path d="m295.96875 271.992188h-15.984375c-4.425781 0-8-3.578126-8-8 0-4.425782 3.574219-8 8-8h15.984375c4.421875 0 8 3.574218 8 8 0 4.421874-3.578125 8-8 8zm0 0"/></svg>