<svg id="Capa_1" enable-background="new 0 0 512 512" height="70" viewBox="0 0 512 512" width="70" xmlns="http://www.w3.org/2000/svg"><g><circle cx="278.11" cy="42.223" fill="#756e78" r="34.724"/><path d="m253.52 17.708c-6.262 6.281-10.133 14.945-10.133 24.515 0 19.177 15.546 34.724 34.724 34.724 6.577 0 12.726-1.829 17.968-5.005l-12.741-31.878c-5.04-12.607-16.52-21.088-29.818-22.356z" fill="#665e66"/><path d="m352.042 106.586-15.855 20h-58.077l-10.534-20v-42.091h75.971c4.691 0 8.495 3.803 8.495 8.495z" fill="#dd636e"/><path d="m293.102 64.495h-25.526v42.091h42.349z" fill="#da4a54"/><path d="m250.056 31.525h-79.337c-12.063 0-21.841 9.779-21.841 21.841v53.22l11.884 20h110.156l23.93-20-24.51-61.326c-3.316-8.295-11.349-13.735-20.282-13.735z" fill="#d0e2e7"/><path d="m270.337 45.26c-3.315-8.295-11.348-13.735-20.281-13.735h-24.738c8.933 0 16.966 5.44 20.281 13.735l24.51 61.326h24.738z" fill="#b4d0d5"/><path d="m294.848 504.499 76.322-388.18c.991-5.041-2.868-9.733-8.006-9.733h-68.316l-20 14.834v321.597z" fill="#f1f4f6"/><path d="m363.164 106.586h-20.253c5.138 0 8.997 4.692 8.006 9.733l-56.069 285.173v103.007l76.322-388.18c.991-5.041-2.868-9.733-8.006-9.733z" fill="#dfeaef"/><path d="m294.848 504.499h-131.235c-12.67 0-22.942-10.271-22.942-22.942v-374.971h154.176v397.913z" fill="#6bbef6"/><path d="m271.289 106.586h23.559v397.914h-23.559z" fill="#5ea5ec"/><path d="m252.69 166.84h-69.861c-3.294 0-5.964-2.67-5.964-5.964v-16.326c0-3.294 2.67-5.964 5.964-5.964h69.861c3.294 0 5.964 2.67 5.964 5.964v16.326c0 3.294-2.67 5.964-5.964 5.964z" fill="#f1f4f6"/><g><path d="m211.223 89.782h18.871c4.142 0 7.5-3.357 7.5-7.5s-3.358-7.5-7.5-7.5h-18.871c-4.142 0-7.5 3.357-7.5 7.5s3.358 7.5 7.5 7.5z"/><path d="m363.164 99.086h-3.622v-26.096c0-8.819-7.175-15.995-15.994-15.995h-25.866c1.747-4.673 2.652-9.649 2.652-14.772 0-23.282-18.941-42.223-42.224-42.223-16.487 0-31.172 9.457-38.101 24.024h-22.942c-4.142 0-7.5 3.357-7.5 7.5s3.358 7.5 7.5 7.5h32.988c5.9 0 11.127 3.54 13.317 9.019 3.325 8.318 15.32 38.332 20.4 51.043h-127.394v-7.64h4.384c4.142 0 7.5-3.357 7.5-7.5s-3.358-7.5-7.5-7.5h-4.384v-8.58h4.384c4.142 0 7.5-3.357 7.5-7.5s-3.358-7.5-7.5-7.5h-4.358c.267-7.676 6.577-13.842 14.316-13.842h16.361c4.142 0 7.5-3.357 7.5-7.5s-3.358-7.5-7.5-7.5h-16.361c-16.179 0-29.341 13.163-29.341 29.342v45.72h-.707c-4.142 0-7.5 3.357-7.5 7.5v314.052c0 4.143 3.358 7.5 7.5 7.5s7.5-3.357 7.5-7.5v-306.552h.707 138.47v382.913h-123.736c-8.515 0-15.442-6.927-15.442-15.441v-30.934c0-4.143-3.358-7.5-7.5-7.5s-7.5 3.357-7.5 7.5v30.934c0 16.785 13.656 30.441 30.442 30.441h131.222c.007 0 .014.001.02.001 3.54 0 6.652-2.541 7.346-6.033.001-.007.004-.014.005-.021l62.291-316.82c.799-4.064-1.849-8.007-5.912-8.807-4.073-.795-8.008 1.849-8.807 5.912l-47.432 241.244v-313.389h60.816c.415 0 .727.372.646.786l-8.201 41.71c-.911 4.633 2.635 8.948 7.367 8.948 3.512 0 6.648-2.479 7.352-6.054l8.201-41.711c1.906-9.684-5.512-18.679-15.363-18.679zm-18.622-26.096v26.096h-44.616l-10.828-27.091h54.449c.549 0 .995.446.995.995zm-87.423-48.103c5.057-6.136 12.663-9.887 20.991-9.887 15.011 0 27.224 12.212 27.224 27.223 0 5.312-1.507 10.377-4.362 14.772h-17.868l-5.803-14.519c-3.58-8.957-11.133-15.369-20.182-17.589z"/><path d="m252.69 174.341c7.423 0 13.463-6.04 13.463-13.464v-16.326c0-7.424-6.04-13.464-13.463-13.464h-69.861c-7.424 0-13.463 6.04-13.463 13.464v16.326c0 7.424 6.04 13.464 13.463 13.464zm-68.325-28.254h66.788v13.254h-66.788z"/></g></g></svg>