<?xml version="1.0" encoding="iso-8859-1"?>
<!-- Generator: Adobe Illustrator 19.0.0, SVG Export Plug-In . SVG Version: 6.00 Build 0)  -->
<svg version="1.1" id="Capa_1" xmlns="http://www.w3.org/2000/svg" xmlns:xlink="http://www.w3.org/1999/xlink" x="0px" y="0px"
	height="70" width="70"
	 viewBox="0 0 512 512" style="enable-background:new 0 0 512 512;" xml:space="preserve">
<path style="fill:#82DBD2;" d="M396.25,70v372c0,10.89-8.69,19.74-19.52,19.99c-0.16,0.01-0.32,0.01-0.48,0.01h-240
	c-0.16,0-0.32,0-0.48-0.01c-10.83-0.25-19.52-9.1-19.52-19.99V70c0-8.32,5.08-15.45,12.31-18.47c2.37-0.98,4.96-1.53,7.69-1.53h240
	c2.73,0,5.32,0.55,7.69,1.53C391.17,54.55,396.25,61.68,396.25,70z"/>
<g>
	<path style="fill:#F5F5F5;" d="M256.25,116c-44.18,0-80,35.82-80,80v120c0,44.18,35.82,80,80,80s80-35.82,80-80V196
		C336.25,151.82,300.43,116,256.25,116z"/>
	<path style="fill:#F5F5F5;" d="M356.25,10l27.69,41.53c-2.37-0.98-4.96-1.53-7.69-1.53h-240c-2.73,0-5.32,0.55-7.69,1.53L156.25,10
		H356.25z"/>
	<path style="fill:#F5F5F5;" d="M376.25,462c0.16,0,0.32,0,0.48-0.01c-5.19,23.131-17.745,35.684-20.48,40.01
		c-11.101,0-188.899,0-200,0c-2.768-4.378-15.292-16.888-20.48-40.01c0.16,0.01,0.32,0.01,0.48,0.01H376.25z"/>
</g>
<path style="fill:#FFC266;" d="M356.25,216v80c-25.54,0-175.402,0-200,0v-80C181.79,216,331.652,216,356.25,216z"/>
<g>
	<path style="fill:#48475A;" d="M296.25,296v20c0,22.06-17.94,40-40,40s-40-17.94-40-40v-20H296.25z"/>
	<path style="fill:#48475A;" d="M296.25,196v20h-80v-20c0-22.06,17.94-40,40-40S296.25,173.94,296.25,196z"/>
</g>
<path d="M316,246c-5.52,0-10,4.48-10,10c0,5.52,4.48,10,10,10s10-4.48,10-10S321.52,246,316,246z"/>
<path d="M196,246c-5.52,0-10,4.48-10,10c0,5.52,4.48,10,10,10s10-4.48,10-10S201.52,246,196,246z"/>
<path d="M390.542,43.779L374.687,20H376c5.522,0,10-4.478,10-10s-4.478-10-10-10h-19.94c-0.006,0-0.012,0-0.018,0H155.965
	c-0.009,0-0.019,0-0.028,0H136c-5.522,0-10,4.478-10,10s4.478,10,10,10h1.313l-15.851,23.773C111.979,49.023,106,58.98,106,70v372
	c0,13.458,9.112,25.03,21.484,28.744c3.227,10.809,8.317,20.983,15.254,30.233C146.512,505.091,148.646,512,156,512h200
	c7.375,0,9.408-6.821,13.26-11.02c6.891-9.188,12.003-19.335,15.257-30.237C396.888,467.03,406,455.458,406,442V70
	C406,58.991,400.033,49.043,390.542,43.779z M386,442c0,5.478-4.283,9.866-9.75,9.993c-0.126,0.003-0.252,0.008-0.378,0.016
	c0.074-0.005,0.148-0.008,0.128-0.009H135.958c-0.069-0.003-0.139-0.006-0.208-0.007c-5.467-0.127-9.75-4.516-9.75-9.993V70
	c0-5.525,4.449-10,10-10h240c5.564,0,10,4.499,10,10V442z M350.648,20l13.335,20H148.017l13.335-20H350.648z M350.997,492H161.003
	c-1.267-1.878-7.211-8.644-11.888-20.1h213.77C358.219,483.328,352.315,490.046,350.997,492z"/>
<path d="M356,206h-10v-10c0-49.626-40.374-90-90-90s-90,40.374-90,90v10h-10c-5.522,0-10,4.478-10,10v80c0,5.522,4.478,10,10,10h10
	v10c0,49.626,40.374,90,90,90s90-40.374,90-90v-10h10c5.522,0,10-4.478,10-10v-80C366,210.478,361.522,206,356,206z M186,196
	c0-38.598,31.402-70,70-70s70,31.402,70,70v10h-20v-10c0-27.57-22.43-50-50-50s-50,22.43-50,50v10h-20V196z M226,206v-10
	c0-16.542,13.458-30,30-30s30,13.458,30,30v10H226z M326,316c0,38.598-31.402,70-70,70s-70-31.402-70-70v-10h20v10
	c0,27.57,22.43,50,50,50s50-22.43,50-50v-10h20V316z M286,306v10c0,16.542-13.458,30-30,30s-30-13.458-30-30v-10H286z M346,286H166
	v-60h180V286z"/>
<path d="M276,246h-40c-5.522,0-10,4.478-10,10s4.478,10,10,10h40c5.522,0,10-4.478,10-10S281.522,246,276,246z"/>
<g>
</g>
<g>
</g>
<g>
</g>
<g>
</g>
<g>
</g>
<g>
</g>
<g>
</g>
<g>
</g>
<g>
</g>
<g>
</g>
<g>
</g>
<g>
</g>
<g>
</g>
<g>
</g>
<g>
</g>
</svg>
