<svg id="Capa_1" enable-background="new 0 0 511.641 511.641" height="70" viewBox="0 0 511.641 511.641" width="70" xmlns="http://www.w3.org/2000/svg"><g><g><g><path d="m294.326 11.246v84.064c0 10.046-8.144 18.19-18.19 18.19h-40.62c-10.046 0-18.19-8.144-18.19-18.19v-84.064c0-2.069 1.677-3.746 3.746-3.746h31.907c1.056 0 2.063.446 2.772 1.227l6.635 7.303c2.19 2.411 5.97 2.447 8.206.078l7.016-7.434c.708-.75 1.693-1.175 2.724-1.175h10.249c2.068.001 3.745 1.678 3.745 3.747z" fill="#e27742"/></g><path d="m257.355 90.143c-10.046 0-18.19-8.144-18.19-18.19v-64.453h-18.094c-2.069 0-3.746 1.677-3.746 3.746v84.064c0 10.046 8.144 18.19 18.19 18.19h40.62c10.046 0 18.19-8.144 18.19-18.19v-5.167z" fill="#dd6631"/><g><path d="m202.486 125.87c-6.31-6.75-10.16-15.8-10.16-25.77v-40.57c0-3.49 2.83-6.31 6.31-6.31h114.38c3.48 0 6.31 2.82 6.31 6.31v40.57c0 9.96-3.85 19.02-10.15 25.77h-.01v123.08l74.77 27.44c11.94 4.38 19.29 16.41 17.73 29.03l-21.98 177.94c-1.47 11.87-11.55 20.78-23.51 20.78h-200.7c-11.96 0-22.04-8.91-23.51-20.78l-21.99-178.04c-1.55-12.58 5.73-24.57 17.61-28.99l74.9-27.87z" fill="#84f7ee"/><g><path d="m156.71 328.177c-1.55-12.58 5.73-24.57 17.61-28.99l74.9-27.87v-122.59c-6.31-6.75-10.16-15.8-10.16-25.77v-40.57c0-3.49 2.83-6.31 6.31-6.31h73.955v-16.547c0-3.49-2.83-6.31-6.31-6.31h-114.38c-3.48 0-6.31 2.82-6.31 6.31v40.57c0 9.97 3.85 19.02 10.16 25.77v122.59l-74.9 27.87c-11.88 4.42-19.16 16.41-17.61 28.99l21.99 178.04c1.47 11.87 11.55 20.78 23.51 20.78h22.968z" fill="#54efd1"/></g><path d="m235.516 113.5h40.62c10.05 0 18.19-8.14 18.19-18.19v-42.09h-77v42.09c0 10.05 8.14 18.19 18.19 18.19z" fill="#cc521d"/><path d="m239.165 71.953v-18.733h-21.839v42.09c0 10.046 8.144 18.19 18.19 18.19h40.62c10.046 0 18.19-8.144 18.19-18.19v-5.167h-36.971c-10.046 0-18.19-8.144-18.19-18.19z" fill="#c43d0e"/></g><g id="XMLID_75_"><g><path d="m364.366 299.03c5.53 2.03 8.94 7.61 8.21 13.45l-19.465 157.626c-.426 3.446-3.353 6.034-6.825 6.034h-180.919c-3.473 0-6.4-2.589-6.825-6.035l-2.356-19.105-16.43-133-.7-5.67c-.72-5.82 2.66-11.38 8.16-13.43l77.624-28.88c3.394-1.263 5.646-4.503 5.646-8.124v-67.669c0-2.959 2.399-5.357 5.357-5.357h39.965c2.959 0 5.357 2.399 5.357 5.357v68.229c0 3.636 2.269 6.886 5.683 8.138z" fill="#fea128"/></g></g><g><path d="m200.552 461.495-21.547-174.422-31.789 11.827c-5.5 2.05-8.88 7.61-8.16 13.43l.7 5.67 16.43 133 2.356 19.105c.425 3.446 3.353 6.035 6.825 6.035h36.991z" fill="#ef8e18"/></g><g id="XMLID_76_"><g><path d="m310.086 318c11.62 0 20.68 10.07 19.46 21.62l-9.88 93.86c-1.04 9.96-9.44 17.52-19.46 17.52h-172.23-.01l-16.42-133z" fill="#fed52e"/><path d="m111.546 318 8.985 72.781 7.438 60.219h.007 43.905l-15.17-122.823c-.43-3.49-.158-6.927.68-10.177z" fill="#fcb21f"/></g><path d="m303.034 352.7-6.891 65.439c-.471 4.469-4.239 7.861-8.732 7.861h-162.335l-.19.02-10.25-83 .19-.02h179.476c5.213 0 9.278 4.516 8.732 9.7z" fill="#cdf4fe"/><path d="m158.541 343h-43.715l-.19.02 10.25 83 .19-.02h43.717z" fill="#bce4ed"/></g><g id="XMLID_74_"><g><circle cx="246.826" cy="384.5" fill="#89bfcc" r="19"/></g></g></g><g><path d="m386.52 269.346-69.854-25.629v-92.081c.001-.046.007-.09.007-.135v-22.824c6.568-8.061 10.153-18.095 10.153-28.577v-40.57c0-7.616-6.196-13.813-13.813-13.813h-11.188v-38.217c0-4.142-3.357-7.5-7.5-7.5h-15.607c-2.063 0-4.036.851-5.453 2.351l-6.715 7.111-6.362-7.005c-1.421-1.564-3.437-2.457-5.552-2.457h-37.311c-4.143 0-7.5 3.358-7.5 7.5v38.217h-11.188c-7.616 0-13.813 6.196-13.813 13.813v40.57c0 10.812 3.814 20.747 10.16 28.542v114.606l-70.016 26.052c-15.198 5.655-24.424 20.845-22.436 36.939l21.993 178.038c1.927 15.6 15.233 27.364 30.952 27.364h200.695c15.719 0 29.025-11.764 30.952-27.364l21.981-177.937c1.999-16.17-7.289-31.382-22.585-36.994zm-161.694-254.346h26.49l9.575 10.542c1.404 1.546 3.39 2.437 5.479 2.457 2.117.052 4.092-.831 5.526-2.351l10.056-10.648h4.874v30.717h-62zm-85.101 310.5c.007 0 .014.001.021.001.005 0 .01-.001.016-.001h170.322c3.467 0 6.653 1.419 8.973 3.996s3.397 5.894 3.034 9.342l-9.879 93.852c-.648 6.163-5.811 10.81-12.008 10.81h-165.601l-1.235-10h102.958c4.143 0 7.5-3.358 7.5-7.5s-3.357-7.5-7.5-7.5h-104.812l-8.4-68h172.611l-7.158 68h-22.241c-4.143 0-7.5 3.358-7.5 7.5s3.357 7.5 7.5 7.5h28.993c3.838 0 7.057-2.898 7.459-6.715l8.737-83c.223-2.114-.463-4.223-1.885-5.803-1.423-1.58-3.448-2.482-5.574-2.482h-182.795l-1.235-10zm254.495-20.999-21.981 177.937c-1 8.097-7.906 14.203-16.065 14.203h-200.696c-8.159 0-15.065-6.106-16.065-14.203l-2.957-23.938h13.099l2.293 18.56c.464 3.758 3.657 6.581 7.443 6.581h193.07c3.786 0 6.979-2.822 7.443-6.581l20.218-163.659c1.155-9.358-4.221-18.163-13.072-21.41l-78.284-28.722v-74.404c0-4.142-3.357-7.5-7.5-7.5s-7.5 3.358-7.5 7.5v79.641c0 3.146 1.963 5.958 4.917 7.041l83.201 30.526c2.27.833 3.647 3.09 3.352 5.49l-19.406 157.078h-179.808l-1.253-10.141h135.535c13.896 0 25.471-10.421 26.926-24.24l9.879-93.852c.802-7.619-1.678-15.255-6.804-20.949s-12.46-8.959-20.121-8.959h-163.616c.105-2.032 1.395-3.838 3.36-4.569l83.273-30.986c2.937-1.093 4.885-3.896 4.885-7.029v-79.05c0-4.142-3.357-7.5-7.5-7.5s-7.5 3.358-7.5 7.5v73.839l-78.389 29.168c-7.923 2.948-13.024 10.375-13.121 18.628h-13.303l-.753-6.1c-1.133-9.168 4.122-17.82 12.779-21.042l74.902-27.871c2.937-1.093 4.885-3.896 4.885-7.029v-107.809c6.067 3.023 12.898 4.733 20.124 4.733 4.143 0 7.5-3.358 7.5-7.5s-3.357-7.5-7.5-7.5c-16.699 0-30.284-13.585-30.284-30.284v-39.382h10v6.283c0 4.142 3.357 7.5 7.5 7.5s7.5-3.358 7.5-7.5v-6.283h62v34.594c0 5.894-4.795 10.689-10.689 10.689h-40.621c-5.554 0-10.127-4.166-10.636-9.689-.381-4.125-4.043-7.164-8.157-6.779-4.125.38-7.16 4.033-6.78 8.157 1.227 13.29 12.221 23.311 25.573 23.311h40.621c14.165 0 25.689-11.524 25.689-25.689v-34.594h10v39.382c0 7.697-2.89 15.032-8.137 20.655-1.296 1.389-2.017 3.217-2.017 5.117v15.493c-.001.046-.007.09-.007.135v107.454c0 3.146 1.963 5.958 4.917 7.041l74.771 27.433c8.714 3.198 14.005 11.864 12.867 21.074z"/><path d="m277.826 130h-26c-4.143 0-7.5 3.358-7.5 7.5s3.357 7.5 7.5 7.5h26c4.143 0 7.5-3.358 7.5-7.5s-3.358-7.5-7.5-7.5z"/><path d="m273.326 384.5c0-14.612-11.888-26.5-26.5-26.5s-26.5 11.888-26.5 26.5 11.888 26.5 26.5 26.5 26.5-11.888 26.5-26.5zm-26.5 11.5c-6.341 0-11.5-5.159-11.5-11.5s5.159-11.5 11.5-11.5 11.5 5.159 11.5 11.5-5.159 11.5-11.5 11.5z"/><path d="m200.826 377h-10c-4.143 0-7.5 3.358-7.5 7.5s3.357 7.5 7.5 7.5h10c4.143 0 7.5-3.358 7.5-7.5s-3.358-7.5-7.5-7.5z"/><path d="m170.826 377h-26c-4.143 0-7.5 3.358-7.5 7.5s3.357 7.5 7.5 7.5h26c4.143 0 7.5-3.358 7.5-7.5s-3.358-7.5-7.5-7.5z"/></g></g></svg>