<svg id="Capa_1" enable-background="new 0 0 512 512" height="50" viewBox="0 0 512 512" width="50" xmlns="http://www.w3.org/2000/svg"><g><g><path d="m98.511 105.706-11.845-62.784h-63.415c-8.705 0-15.751-7.057-15.751-15.751s7.046-15.751 15.751-15.751h76.467c7.582 0 14.082 5.387 15.478 12.832l12.853 68.13" fill="#f6f9f9"/><g fill="#dae7ef"><path d="m101.332 42.922h-14.666l11.845 62.785 13.516-6.098z"/><path d="m22.166 27.171c0-8.694 7.046-15.751 15.751-15.751h-14.666c-8.705 0-15.751 7.057-15.751 15.751 0 8.695 7.046 15.751 15.751 15.751h14.666c-8.705 0-15.751-7.057-15.751-15.751z"/></g><g><path d="m131.834 178.946h337.613v31.503h-337.613z" fill="#dae7ef"/><path d="m146.671 254.363h309.114v31.503h-309.114z" fill="#dae7ef"/><g fill="#f6f9f9"><path d="m217.28 135.621h31.502v207.477h-31.502z" transform="matrix(.997 -.083 .083 .997 -18.965 20.055)"/><path d="m264.317 223.608h207.368v31.503h-207.368z" transform="matrix(.076 -.997 .997 .076 101.375 588.112)"/></g></g><path d="m482.885 120.476c-8.558-1.554-16.755 4.131-18.306 12.692l-31.743 175.274c-1.946 10.749-11.288 18.55-22.213 18.55h-218.136c-10.75 0-20.06-7.652-22.145-18.197l-13.96-70.919c-.001-.005-.003-.01-.004-.015l-20.655-104.929c-1.68-8.536-9.961-14.094-18.497-12.413-8.536 1.68-14.093 9.962-12.413 18.497l29.551 150.117 22.06 112.067c4.638 23.562 25.435 40.664 49.449 40.664h230.487c8.699 0 15.751-7.052 15.751-15.751s-7.052-15.751-15.751-15.751h-230.487c-9.004 0-16.801-6.412-18.54-15.246l-7.508-38.142c4.079.988 8.319 1.52 12.661 1.52h218.137c26.17 0 48.548-18.69 53.211-44.439l31.743-175.274c1.551-8.559-4.132-16.755-12.692-18.305z" fill="#f6f9f9"/><g fill="#dae7ef"><path d="m171.09 401.201-22.06-112.067-29.551-150.117c-1.377-6.997 2.115-13.818 8.119-16.976-3.074-1.62-6.698-2.244-10.373-1.521-8.536 1.68-14.093 9.962-12.413 18.497l29.551 150.117 22.06 112.067c4.638 23.562 25.435 40.664 49.449 40.664h14.666c-24.013 0-44.81-17.102-49.448-40.664z"/><path d="m447.503 308.442 31.743-175.274c.899-4.963 4.039-8.947 8.181-11.127-1.39-.733-2.913-1.271-4.541-1.566-8.558-1.554-16.755 4.131-18.306 12.692l-31.743 175.274c-1.946 10.749-11.288 18.55-22.213 18.55h14.666c10.925.001 20.267-7.8 22.213-18.549z"/></g><path d="m480.078 141.226h-359.81c-13.488 0-24.422-10.934-24.422-24.422 0-13.488 10.934-24.421 24.422-24.421h359.81c13.488 0 24.422 10.934 24.422 24.421 0 13.488-10.934 24.422-24.422 24.422z" fill="#e28086"/><path d="m179.297 141.229h-59.025c-13.483 0-24.425-10.931-24.425-24.425 0-6.741 2.73-12.843 7.162-17.263 4.41-4.421 10.522-7.151 17.263-7.151h59.025c-6.742 0-12.843 2.73-17.274 7.151-4.41 4.421-7.151 10.522-7.151 17.263 0 13.494 10.942 24.425 24.425 24.425z" fill="#dd636e"/><g><circle cx="236.981" cy="471.224" fill="#30579d" r="29.357"/><path d="m243.736 499.786c-2.163.515-4.431.788-6.752.788-16.213 0-29.36-13.137-29.36-29.35 0-16.214 13.147-29.36 29.36-29.36 2.321 0 4.589.273 6.752.788-12.969 3.035-22.608 14.68-22.608 28.573s9.639 25.526 22.608 28.561z" fill="#26457d"/><circle cx="380.476" cy="471.224" fill="#30579d" r="29.357"/><path d="m387.231 499.786c-2.163.515-4.431.788-6.752.788-16.213 0-29.36-13.137-29.36-29.35 0-16.214 13.147-29.36 29.36-29.36 2.321 0 4.589.273 6.752.788-12.969 3.035-22.608 14.68-22.608 28.573s9.639 25.526 22.608 28.561z" fill="#26457d"/></g></g><path d="m512 116.8c0-17.601-14.319-31.92-31.92-31.92h-285.78c-4.142 0-7.5 3.358-7.5 7.5s3.358 7.5 7.5 7.5h285.78c9.33 0 16.92 7.59 16.92 16.92 0 4.522-1.759 8.772-4.96 11.973-3.189 3.197-7.437 4.958-11.96 4.958h-359.81c-9.33 0-16.92-7.595-16.92-16.93 0-4.516 1.759-8.762 4.953-11.957 3.201-3.201 7.451-4.963 11.967-4.963h44.03c4.142 0 7.5-3.358 7.5-7.5s-3.358-7.5-7.5-7.5h-30.033l-11.699-62.011c-2.06-10.98-11.669-18.949-22.85-18.949h-76.467c-12.82-.002-23.251 10.429-23.251 23.249s10.431 23.251 23.251 23.251h57.197l10.249 54.329c-1.538 3.775-2.348 7.849-2.348 12.049 0 8.54 3.376 16.302 8.854 22.037.069.55.15 1.095.257 1.631l51.61 262.178c5.321 27.074 29.212 46.724 56.809 46.724h1.444c-4.521 6.119-7.2 13.678-7.2 21.854 0 20.323 16.534 36.857 36.857 36.857s36.857-16.534 36.857-36.857c0-8.175-2.679-15.734-7.2-21.854h84.181c-4.521 6.119-7.2 13.678-7.2 21.854 0 20.323 16.534 36.857 36.857 36.857s36.857-16.534 36.857-36.857c0-8.175-2.679-15.734-7.2-21.854h26.228c12.82 0 23.25-10.43 23.25-23.25 0-12.826-10.43-23.26-23.25-23.26h-11.32c-4.143 0-7.5 3.358-7.5 7.5s3.357 7.5 7.5 7.5h11.32c4.549 0 8.25 3.706 8.25 8.26 0 4.549-3.701 8.25-8.25 8.25h-55.73c-.052 0-174.75 0-174.75 0-20.447 0-38.149-14.558-42.091-34.619l-49.528-251.596c1.948.373 3.955.575 6.009.575h10.92l31.794 161.528c2.784 14.045 15.192 24.24 29.503 24.24h218.134c14.55 0 26.998-10.394 29.6-24.719l29.158-161.048h10.702c2.097 0 4.162-.203 6.175-.595l-29.795 164.59c-4.015 22.178-23.293 38.275-45.841 38.275h-218.13c-3.61 0-7.285-.442-10.923-1.313-2.485-.594-5.1.114-6.942 1.883s-2.658 4.354-2.165 6.859l7.511 38.141c2.43 12.336 13.327 21.29 25.908 21.29h189.321c4.143 0 7.5-3.358 7.5-7.5s-3.357-7.5-7.5-7.5h-189.32c-5.436 0-10.142-3.865-11.191-9.189l-5.467-27.761c1.092.06 2.182.09 3.268.09h218.13c29.808 0 55.293-21.282 60.6-50.604l31.732-175.291c.075-.417.138-.833.19-1.245 5.713-5.966 8.858-13.768 8.858-22.06zm-253.162 354.424c0 12.052-9.805 21.857-21.857 21.857s-21.857-9.805-21.857-21.857c0-12 9.722-21.77 21.703-21.854h.308c11.981.084 21.703 9.853 21.703 21.854zm143.495 0c0 12.052-9.806 21.857-21.857 21.857s-21.857-9.805-21.857-21.857c0-12 9.723-21.77 21.703-21.854h.308c11.98.084 21.703 9.853 21.703 21.854zm-379.082-435.802c-4.55 0-8.251-3.702-8.251-8.251s3.702-8.251 8.251-8.251h76.467c3.967 0 7.377 2.824 8.108 6.723l11.181 59.269c-5.698.221-11.131 1.934-15.854 4.949l-9.117-48.328c-.668-3.543-3.764-6.109-7.37-6.109h-63.415zm366.357 226.441h44.044l-2.988 16.503h-42.314zm1.143-15 2.203-28.915h48.649l-5.235 28.915zm3.346-43.915 1.258-16.502h51.952l-2.988 16.502zm-23.924 116.55h-16.553l13.012-170.768h16.553zm-163.485-116.55h-49.541l-3.247-16.502h51.421zm1.243 15 2.396 28.915h-44.53l-2.03-10.318c-.03-.165-.065-.329-.105-.491l-3.563-18.105h47.832zm-39.182 43.915h42.821l1.367 16.503h-40.941zm48.498-113.133h16.555l14.141 170.768h-16.546zm124.463 129.636h-82.121l-1.367-16.503h84.745zm2.4-31.503h-87.13l-2.394-28.915h91.728zm3.347-43.915h-94.113l-1.367-16.502h96.737zm2.4-31.502h-99.122l-1.881-22.716h102.734zm-89.026 121.92h79.736l-1.991 26.132h-75.581zm-58.636-144.636 1.882 22.716h-53.13l-4.47-22.716zm-24.496 158.621-2.752-13.985h39.233l2.165 26.132h-23.859c-7.173 0-13.393-5.113-14.787-12.147zm232.922 12.147h-25.405l1.991-26.132h40.741l-2.487 13.736c-1.304 7.183-7.545 12.396-14.84 12.396zm39.401-148.052h-53.525l1.731-22.716h55.906z"/></g></svg>