<?xml version="1.0" encoding="iso-8859-1"?>
<!-- Generator: Adobe Illustrator 19.0.0, SVG Export Plug-In . SVG Version: 6.00 Build 0)  -->
<svg version="1.1" id="Capa_1" xmlns="http://www.w3.org/2000/svg" xmlns:xlink="http://www.w3.org/1999/xlink" x="0px" y="0px"
 height="70" width="70"
	 viewBox="0 0 512 512" style="enable-background:new 0 0 100 512;" xml:space="preserve">
<path style="fill:#F8C36E;" d="M353.867,263.117c-2.833,0-5.151,2.318-5.151,5.151v28.864c0,2.833,2.318,5.151,5.151,5.151h125.161
	c2.833,0,5.151-2.318,5.151-5.151v-28.864c0-2.833-2.318-5.151-5.151-5.151H353.867z"/>
<path style="opacity:0.1;enable-background:new    ;" d="M371.38,297.132v-28.864c0-2.833,2.318-5.151,5.151-5.151h-22.664
	c-2.833,0-5.151,2.318-5.151,5.151v28.864c0,2.833,2.318,5.151,5.151,5.151h22.664C373.698,302.283,371.38,299.965,371.38,297.132z"
	/>
<path style="fill:#FFCB00;" d="M321.67,142.633H195.205v165.074H321.67c3.544,0,6.443-2.898,6.443-6.442v-152.19
	C328.113,145.531,325.214,142.633,321.67,142.633z"/>
<path style="fill:#FBE24F;" d="M321.67,142.633h-89.665v42.079c0,6.665,5.378,12.066,12.013,12.066
	c6.636,0,12.014-5.4,12.014-12.066v20.11c0,6.663,5.379,12.065,12.014,12.065c6.634,0,12.012-5.402,12.012-12.065v-17.094
	c0-6.664,5.38-12.065,12.014-12.065s12.014,5.401,12.014,12.065v59.324c0,6.663,5.378,12.066,12.013,12.066
	s12.014-5.403,12.014-12.066v-97.977C328.113,145.531,325.214,142.633,321.67,142.633z"/>
<path style="fill:#CDF0DE;" d="M22.086,307.707h179.637c3.18,0,5.781-2.602,5.781-5.781V143.413c0-3.179-2.601-5.781-5.781-5.781
	H22.086c-3.18,0-5.781,2.602-5.781,5.781v158.514C16.305,305.105,18.906,307.707,22.086,307.707z"/>
<path style="fill:#299FBC;" d="M207.504,206.859v-63.448c0-3.179-2.601-5.781-5.781-5.781H22.086c-3.18,0-5.781,2.602-5.781,5.781
	v28.535C80.039,154.757,143.771,248.514,207.504,206.859z"/>
<path style="fill:#19A9C1;" d="M16.305,171.948v31.212c63.734-17.191,127.467,76.566,191.2,34.912v-31.212
	C143.771,248.514,80.039,154.757,16.305,171.948z"/>
<path style="opacity:0.1;enable-background:new    ;" d="M32.865,301.926V143.413c0-3.179,2.601-5.781,5.781-5.781h-16.56
	c-3.18,0-5.781,2.602-5.781,5.781v158.514c0,3.18,2.601,5.781,5.781,5.781h16.56C35.466,307.707,32.865,305.105,32.865,301.926z"/>
<path style="fill:#B2B4CE;" d="M23.039,323.171v12.484c0,21.382,17.334,38.715,38.716,38.715h388.49
	c21.381,0,38.715-17.333,38.715-38.715v-12.484H23.039z"/>
<path style="opacity:0.1;enable-background:new    ;" d="M59.235,335.654v-12.484H23.039v12.484
	c0,21.382,17.334,38.715,38.716,38.715h36.196C76.569,374.369,59.235,357.036,59.235,335.654z"/>
<path style="fill:#FFCB00;" d="M366.042,223.905c-2.833,0-5.151,2.318-5.151,5.151v28.865c0,2.833,2.318,5.151,5.151,5.151h125.161
	c2.833,0,5.151-2.318,5.151-5.151v-28.865c0-2.833-2.318-5.151-5.151-5.151H366.042z"/>
<path style="opacity:0.1;enable-background:new    ;" d="M384.264,257.921v-28.865c0-2.833,2.318-5.151,5.151-5.151h-23.372
	c-2.833,0-5.151,2.318-5.151,5.151v28.865c0,2.833,2.318,5.151,5.151,5.151h23.372C386.582,263.072,384.264,260.753,384.264,257.921
	z"/>
<path style="fill:#9798BC;" d="M512,324.368c0,2.833-2.318,5.151-5.151,5.151H5.151c-2.833,0-5.151-2.318-5.151-5.151v-21.842
	c0-2.833,2.318-5.151,5.151-5.151h501.698c2.833,0,5.151,2.318,5.151,5.151V324.368z"/>
<path style="opacity:0.1;enable-background:new    ;" d="M33.481,324.368v-21.842c0-2.833,2.318-5.151,5.151-5.151H5.151
	c-2.833,0-5.151,2.318-5.151,5.151v21.842c0,2.833,2.318,5.151,5.151,5.151h33.481C35.799,329.52,33.481,327.201,33.481,324.368z"/>
<path style="fill:#FFCB00;" d="M80.317,279.91c0,1.7-1.391,3.09-3.09,3.09H42.939c-1.7,0-3.09-1.391-3.09-3.09v-25.174
	c0-1.7,1.391-3.09,3.09-3.09h34.288c1.7,0,3.09,1.391,3.09,3.09C80.317,254.737,80.317,279.91,80.317,279.91z"/>
<path style="fill:#FFFFFF;" d="M182.067,170.454h-33.531c-4.142,0-7.5-3.358-7.5-7.5s3.358-7.5,7.5-7.5h33.531
	c4.142,0,7.5,3.358,7.5,7.5S186.21,170.454,182.067,170.454z"/>
</svg>
