<svg id="Capa_1" enable-background="new 0 0 455.509 455.509" height="70" viewBox="0 0 455.509 455.509" width="70" xmlns="http://www.w3.org/2000/svg"><g><path d="m277.326 208.504h-99.142c-11.145 23.68-23.145 54.001-22.865 74.206.42 30.061.17 105.942.05 135.043-.08 20.772 16.694 37.675 37.465 37.755h.14 69.561c20.772-.003 37.609-16.844 37.606-37.615 0-.048 0-.097 0-.145-.12-29.101-.37-105.002.05-135.043.28-20.215-11.72-50.52-22.865-74.201z" fill="#3e6b82"/><path d="m275.171 203.974c-10.829-22.318-17.142-46.556-18.575-71.321l-5.92-71.081v-2.295h1.855c2.527.021 4.592-2.011 4.613-4.538s-2.011-4.592-4.538-4.613v-44.386c0-3.17-2.57-5.74-5.74-5.74h-38.221c-3.17 0-5.74 2.57-5.74 5.74v44.406c-2.527.021-4.558 2.086-4.538 4.613.021 2.527 2.086 4.558 4.613 4.538h1.91v1.29l-6 72.086c-1.433 24.765-7.746 49.003-18.575 71.321-1.885 3.91-3.82 8.065-5.745 12.345l53.186 25.721 53.161-25.741c-1.926-4.28-3.861-8.435-5.746-12.345z" fill="#fcd462"/><path d="m155.313 316.881h144.878v65.901h-144.878z" fill="#e1e6e9"/><path d="m204.664 455.489h-4.5c-10.645-.492-20.139-6.847-24.65-16.5-3.451-6.547-5.221-13.85-5.15-21.25.1-29.101.3-104.952-.05-135.053-.2-20.2 9.3-50.501 18.15-74.201l24.9-74.941c-7.4 23.7-33.851 128.943-33.651 149.143.3 30.101.1 105.952.05 135.053-.1 7.304 1.348 14.547 4.25 21.25 4.651 10.349 12.401 16.499 20.651 16.499z" fill="#fff" opacity=".35"/><circle cx="227.758" cy="349.831" fill="#89c5cd" r="22.305"/></g></svg>