<?xml version="1.0" encoding="iso-8859-1"?>
<!-- Generator: Adobe Illustrator 19.0.0, SVG Export Plug-In . SVG Version: 6.00 Build 0)  -->
<svg version="1.1" id="Layer_1" xmlns="http://www.w3.org/2000/svg" xmlns:xlink="http://www.w3.org/1999/xlink" x="0px" y="0px"
	height="70" width="70"
	 viewBox="0 0 496 496" style="enable-background:new 0 0 496 496;" xml:space="preserve">
<path style="fill:#F9BA48;" d="M488,112v80c-32,0-48,24-48,48s16,48,48,48v200H139.064C104,488,48,448,48,400V200
	c0-46.984,32-88,88-88H488z"/>
<g>
	<path style="fill:#333333;" d="M488,200h8v-94.056L122.168,0.304L120,0C53.832,0,0,46.656,0,104v288
		c0,50.272,36.528,104,139.064,104H496V280h-8c-27.488,0-40-20.736-40-40S460.512,200,488,200z M16,392V104
		c0-48.216,46.064-87.504,102.904-87.992L430.272,104H136c-63.024,0-96,48.296-96,96v200c0,28.696,17.584,54.472,39.912,72.072
		C21.52,453.64,16,408.288,16,392z M480,295.528V480H139.064C107.776,480,56,442.608,56,400V200c0-38.528,25.032-80,80-80h344
		v32.408c-44.784,4.056-80,41.768-80,87.592h16c0-37,28.056-67.536,64-71.528v16c-31.544,3.768-48,29.8-48,55.528
		S448.456,291.768,480,295.528z"/>
	<path style="fill:#333333;" d="M128,248c17.648,0,32-14.352,32-32s-14.352-32-32-32s-32,14.352-32,32S110.352,248,128,248z
		 M128,200c8.824,0,16,7.176,16,16s-7.176,16-16,16s-16-7.176-16-16S119.176,200,128,200z"/>
	<path style="fill:#333333;" d="M304,344c-30.872,0-56,25.128-56,56s25.128,56,56,56s56-25.128,56-56S334.872,344,304,344z M304,440
		c-22.056,0-40-17.944-40-40s17.944-40,40-40s40,17.944,40,40S326.056,440,304,440z"/>
	<path style="fill:#333333;" d="M304,248c22.056,0,40-17.944,40-40h-16c0,13.232-10.768,24-24,24s-24-10.768-24-24s10.768-24,24-24
		v-16c-22.056,0-40,17.944-40,40S281.944,248,304,248z"/>
	<path style="fill:#333333;" d="M192,288v16c8.824,0,16,7.176,16,16s-7.176,16-16,16s-16-7.176-16-16h-16c0,17.648,14.352,32,32,32
		s32-14.352,32-32S209.648,288,192,288z"/>
	<path style="fill:#333333;" d="M400,384c0,13.232,10.768,24,24,24s24-10.768,24-24s-10.768-24-24-24S400,370.768,400,384z M432,384
		c0,4.416-3.584,8-8,8s-8-3.584-8-8s3.584-8,8-8S432,379.584,432,384z"/>
	<path style="fill:#333333;" d="M128,360c-13.232,0-24,10.768-24,24s10.768,24,24,24s24-10.768,24-24S141.232,360,128,360z M128,392
		c-4.416,0-8-3.584-8-8s3.584-8,8-8s8,3.584,8,8S132.416,392,128,392z"/>
	<path style="fill:#333333;" d="M104,48V32c-37.008,0-72,34.992-72,72h16C48,75.744,75.744,48,104,48z"/>
</g>
<g>
</g>
<g>
</g>
<g>
</g>
<g>
</g>
<g>
</g>
<g>
</g>
<g>
</g>
<g>
</g>
<g>
</g>
<g>
</g>
<g>
</g>
<g>
</g>
<g>
</g>
<g>
</g>
<g>
</g>
</svg>
