<svg height="70" viewBox="0 0 128 128" width="70" xmlns="http://www.w3.org/2000/svg"><g><path d="m121.5 25.56s-10.76 13.35-32.13 10.32c-1.17-.16-2.36-.37-3.59-.64l1.81 14.87 5.58 45.91a25.791 25.791 0 0 1 .17 3.01c0 12.76-9.38 22.47-21.19 22.47-22.43 0-48.9-19.34-48.9-19.34-9.1-5.43-16.75-15.57-16.75-27.36a29.974 29.974 0 0 1 4.44-15.38 22.537 22.537 0 0 1 33.14-4.32l11.39 9.68 3.84 3.27-1.18-12v-.02l-2.48-25.15c-.69-7.06.82-15.42 6.35-19.84a20.717 20.717 0 0 1 21.16-2.84z" fill="#f4a86c"/><g fill="#041925"><path d="m93.49 84.132a1.75 1.75 0 1 0 -3.475.423l1.42 11.66a21.707 21.707 0 0 1 -5.12 17.184 18.766 18.766 0 0 1 -14.166 6.351c-21.588 0-47.6-18.812-47.865-19a1.5 1.5 0 0 0 -.135-.089c-13.039-7.788-21.249-24.123-11.738-40.299a20.8 20.8 0 0 1 30.535-3.934 1.75 1.75 0 1 0 2.267-2.666 24.295 24.295 0 0 0 -35.713 4.654c-.025.036-.048.072-.07.11-10.708 18.134-1.645 36.4 12.855 45.1 1.815 1.312 27.465 19.624 49.864 19.624a22.222 22.222 0 0 0 16.776-7.52 25.168 25.168 0 0 0 5.986-19.923z"/><path d="m123.2 25.15a1.752 1.752 0 0 0 -.98-1.189l-38.369-17.371a22.454 22.454 0 0 0 -22.941 3.081c-5.285 4.219-7.9 12.213-7 21.383l3.234 32.858-6.088-5.178a1.75 1.75 0 0 0 -2.265 2.666l8.85 7.527.708 7.2a1.75 1.75 0 0 0 1.74 1.579 1.682 1.682 0 0 0 .173-.008 1.751 1.751 0 0 0 1.571-1.913l-4.433-45.074c-.607-6.165.571-14.211 5.7-18.3a18.94 18.94 0 0 1 19.336-2.619l36.088 16.337c-3.768 3.5-14.087 10.921-31.163 7.643l-.276-2.266a1.75 1.75 0 1 0 -3.475.423l4.446 36.527a1.75 1.75 0 0 0 1.735 1.538 1.7 1.7 0 0 0 .209-.013 1.749 1.749 0 0 0 1.526-1.948l-3.726-30.618c22.946 3.9 34.56-10.142 35.059-10.762a1.746 1.746 0 0 0 .341-1.503z"/><path d="m90.98 79.763a1.7 1.7 0 0 0 .213-.013 1.749 1.749 0 0 0 1.526-1.95l-.409-3.366a1.75 1.75 0 1 0 -3.475.423l.41 3.366a1.75 1.75 0 0 0 1.735 1.54z"/><path d="m63.379 48.113a1.751 1.751 0 0 0 1.571-1.913l-.628-6.38a1.75 1.75 0 0 0 -3.484.343l.628 6.379a1.75 1.75 0 0 0 1.74 1.579 1.682 1.682 0 0 0 .173-.008z"/><path d="m28.059 59.891a1.749 1.749 0 0 0 -2.361.743c-4.76 9.134-5.182 27.136-5.2 27.9a1.75 1.75 0 0 0 1.714 1.785h.036a1.751 1.751 0 0 0 1.752-1.719c0-.178.421-17.946 4.8-26.353a1.749 1.749 0 0 0 -.741-2.356z"/><path d="m37.721 68.987c-4.344 8.333-4.729 24.733-4.743 25.427a1.75 1.75 0 0 0 1.713 1.786h.037a1.75 1.75 0 0 0 1.749-1.714c0-.162.378-16.267 4.347-23.882a1.75 1.75 0 0 0 -3.1-1.617z"/><path d="m47.169 102.082h.037a1.751 1.751 0 0 0 1.749-1.714c0-.145.344-14.6 3.892-21.413a1.75 1.75 0 0 0 -3.1-1.617c-3.927 7.535-4.275 22.331-4.287 22.957a1.75 1.75 0 0 0 1.709 1.787z"/><path d="m57.934 106.179a1.749 1.749 0 0 0 1.713 1.785h.037a1.75 1.75 0 0 0 1.749-1.714c0-.129.3-12.924 3.436-18.942a1.75 1.75 0 0 0 -3.1-1.618c-3.514 6.738-3.824 19.931-3.835 20.489z"/></g></g></svg>