<svg id="Layer_5" enable-background="new 0 0 64 64" height="70" viewBox="0 0 64 64" width="70" xmlns="http://www.w3.org/2000/svg"><g><g><path d="m57 38h5c0 3.86-1.57 7.36-4.1 9.9-2.54 2.53-6.04 4.1-9.9 4.1h-9c-7 0-14.51-12.88-18.07-17.19-3.74-4.53-9.27-8.81-16.93-8.81-.55 0-1.05-.22-1.41-.59-.37-.36-.59-.86-.59-1.41v-2c0-1.1.9-2 2-2 5.24 0 9.62 1.52 13.2 3.66 3.57 2.13 6.34 4.88 8.36 7.33 1.68 2.02 3.09 3.69 4.57 4.87 1.21.98 2.46 1.64 3.93 1.95h.01c.6.13 1.24.19 1.93.19h3 6 6z" fill="#aab2bd"/><path d="m57 32c-.32 0-.63.05-.92.15.56-.55.92-1.3.92-2.15 0-1.66-1.34-3-3-3-.32 0-.63.05-.92.15.56-.55.92-1.3.92-2.15 0-1.66-1.34-3-3-3-.32 0-.63.05-.92.15.56-.55.92-1.3.92-2.15 0-1.66-1.34-3-3-3-.32 0-.63.05-.92.15.56-.55.92-1.3.92-2.15 0-1.66-1.34-3-3-3s-3 1.34-3 3c0 .85.36 1.6.92 2.15-.29-.1-.6-.15-.92-.15-1.66 0-3 1.34-3 3 0 .85.36 1.6.92 2.15-.29-.1-.6-.15-.92-.15-1.66 0-3 1.34-3 3 0 .85.36 1.6.92 2.15-.29-.1-.6-.15-.92-.15-1.66 0-3 1.34-3 3 0 .85.36 1.6.92 2.15-.29-.1-.6-.15-.92-.15-1.66 0-3 1.34-3 3 0 .3.04.59.13.86 1.21.98 2.46 1.64 3.93 1.95h.01c1.12-.44 1.93-1.53 1.93-2.81 0 1.66 1.34 3 3 3s3-1.34 3-3c0 1.66 1.34 3 3 3s3-1.34 3-3c0 1.66 1.34 3 3 3s3-1.34 3-3c0 1.66 1.34 3 3 3s3-1.34 3-3-1.34-3-3-3z" fill="#ff826e"/></g><g><path d="m60.444 37c.344-.591.556-1.268.556-2 0-1.921-1.362-3.527-3.17-3.911.1-.351.17-.713.17-1.089 0-1.921-1.362-3.527-3.17-3.911.1-.351.17-.713.17-1.089 0-1.921-1.362-3.527-3.17-3.911.1-.351.17-.713.17-1.089 0-1.921-1.362-3.527-3.17-3.911.1-.351.17-.713.17-1.089 0-2.206-1.794-4-4-4s-4 1.794-4 4c0 .376.07.738.17 1.089-1.808.384-3.17 1.99-3.17 3.911 0 .376.07.738.17 1.089-1.808.384-3.17 1.99-3.17 3.911 0 .376.07.738.17 1.089-1.808.384-3.17 1.99-3.17 3.911 0 .376.07.738.17 1.089-1.369.29-2.467 1.287-2.927 2.586-.908-.934-1.846-2.03-2.911-3.319-4.278-5.181-11.626-11.356-22.332-11.356-1.654 0-3 1.346-3 3v2c0 1.654 1.346 3 3 3 6.095 0 11.533 2.843 16.164 8.45.7.847 1.567 2.05 2.571 3.443 4.05 5.617 10.171 14.107 16.265 14.107h9c8.271 0 15-6.729 15-15v-1zm-1.444-2c0 1.103-.897 2-2 2s-2-.897-2-2 .897-2 2-2 2 .897 2 2zm-22 0c0-1.103.897-2 2-2s2 .897 2 2-.897 2-2 2-2-.897-2-2zm8-12c1.103 0 2 .897 2 2 0 .482-.181.933-.497 1.297-.586.238-1.093.617-1.503 1.086-.41-.469-.917-.848-1.503-1.086-.316-.364-.497-.815-.497-1.297 0-1.103.897-2 2-2zm4.503 8.297c-.586.238-1.093.617-1.503 1.086-.41-.469-.917-.848-1.503-1.086-.316-.364-.497-.815-.497-1.297 0-1.103.897-2 2-2s2 .897 2 2c0 .482-.181.933-.497 1.297zm-7.503-3.297c1.103 0 2 .897 2 2 0 .482-.181.933-.497 1.297-.586.238-1.093.617-1.503 1.086-.41-.469-.917-.848-1.503-1.086-.316-.364-.497-.815-.497-1.297 0-1.103.897-2 2-2zm1 7c0-1.103.897-2 2-2s2 .897 2 2-.897 2-2 2-2-.897-2-2zm6 0c0-1.103.897-2 2-2s2 .897 2 2-.897 2-2 2-2-.897-2-2zm7-5c0 .482-.181.933-.497 1.297-.586.238-1.093.617-1.503 1.086-.41-.469-.917-.848-1.503-1.086-.316-.364-.497-.815-.497-1.297 0-1.103.897-2 2-2s2 .897 2 2zm-3-5c0 .482-.181.933-.497 1.297-.586.238-1.093.617-1.503 1.086-.41-.469-.917-.848-1.503-1.086-.316-.364-.497-.815-.497-1.297 0-1.103.897-2 2-2s2 .897 2 2zm-3-5c0 .482-.181.933-.497 1.297-.586.238-1.093.617-1.503 1.086-.41-.469-.917-.848-1.503-1.086-.316-.364-.497-.815-.497-1.297 0-1.103.897-2 2-2s2 .897 2 2zm-5-7c1.103 0 2 .897 2 2 0 .482-.181.933-.497 1.297-.586.238-1.093.617-1.503 1.086-.41-.469-.917-.848-1.503-1.086-.316-.364-.497-.815-.497-1.297 0-1.103.897-2 2-2zm-3 5c1.103 0 2 .897 2 2 0 .482-.181.933-.497 1.297-.586.238-1.093.617-1.503 1.086-.41-.469-.917-.848-1.503-1.086-.316-.364-.497-.815-.497-1.297 0-1.103.897-2 2-2zm-3 5c1.103 0 2 .897 2 2 0 .482-.181.933-.497 1.297-.586.238-1.093.617-1.503 1.086-.41-.469-.917-.848-1.503-1.086-.316-.364-.497-.815-.497-1.297 0-1.103.897-2 2-2zm-3 5c1.103 0 2 .897 2 2 0 .482-.181.933-.497 1.297-.586.238-1.093.617-1.503 1.086-.41-.469-.917-.848-1.503-1.086-.316-.364-.497-.815-.497-1.297 0-1.103.897-2 2-2zm-3 5c1.103 0 2 .897 2 2 0 .728-.416 1.378-1.04 1.728-1.053-.269-2.003-.733-2.916-1.42-.015-.103-.044-.203-.044-.308 0-1.103.897-2 2-2zm15 18h-9c-5.07 0-10.831-7.99-14.643-13.277-1.025-1.421-1.91-2.649-2.651-3.546-5.029-6.09-10.986-9.177-17.706-9.177-.551 0-1-.449-1-1v-2c0-.551.449-1 1-1 9.927 0 16.785 5.78 20.79 10.629 3.788 4.586 6.433 7.371 11.21 7.371h24.962c-.512 6.703-6.13 12-12.962 12z"/><path d="m48 47h-1v2h1c4.368 0 8.325-2.59 10.081-6.599l-1.832-.803c-1.437 3.282-4.675 5.402-8.249 5.402z"/><path d="m43 47h2v2h-2z"/></g></g></svg>