<svg height="70" viewBox="0 0 367.334 367" width="70" xmlns="http://www.w3.org/2000/svg"><path d="m259.429688.167969h69.605468c20.96875 0 37.964844 16.996093 37.964844 37.964843v177.171876c0 27.957031-22.664062 50.621093-50.621094 50.621093-6.828125.003907-13.582031 1.378907-19.867187 4.050781-5.941407 2.554688-11.351563 6.203126-15.945313 10.757813-9.484375 9.503906-14.808594 22.382813-14.808594 35.8125.019532 13.429687-5.308593 26.316406-14.804687 35.816406-9.496094 9.496094-22.382813 14.824219-35.8125 14.804688h-37.96875zm0 0" fill="#f9eab0"/><path d="m329.035156 38.132812v177.171876c0 27.957031-22.664062 50.621093-50.621094 50.621093-13.429687-.019531-26.316406 5.308594-35.816406 14.804688-9.496094 9.5-14.824218 22.382812-14.804687 35.816406.019531 13.429687-5.308594 26.316406-14.804688 35.8125-9.496093 9.5-22.382812 14.824219-35.816406 14.804687-26.859375.035157-52.632813-10.617187-71.625-29.613281-18.996094-18.992187-29.652344-44.761719-29.617187-71.625v-12.65625c0-20.96875-16.996094-37.964843-37.964844-37.964843-20.953125-.03125-37.933594-17.011719-37.964844-37.964844v-139.207032c0-20.96875 16.996094-37.964843 37.964844-37.964843h145.597656v.441406c3.480469.070313 6.265625 2.910156 6.265625 6.390625v5.0625c-.179687 6.375 4.253906 11.957031 10.503906 13.226562 3.675781.632813 7.445313-.386718 10.300781-2.789062 2.855469-2.402344 4.503907-5.945312 4.503907-9.675781v-6.328125c0-3.496094 2.835937-6.328125 6.328125-6.328125h69.605468c20.964844 0 37.964844 16.996093 37.964844 37.964843zm0 0" fill="#f5efca"/><path d="m303.722656 38.132812v177.171876c0 13.976562-11.328125 25.308593-25.308594 25.308593-16.378906-.050781-32.328124 5.238281-45.429687 15.0625-2.902344 2.167969-5.652344 4.535157-8.226563 7.085938-.476562.453125-.921874.9375-1.328124 1.453125-13.523438 14.054687-21.039063 32.828125-20.945313 52.332031.007813 6.714844-2.65625 13.15625-7.40625 17.90625-4.746094 4.75-11.1875 7.410156-17.90625 7.402344-20.152344.058593-39.5-7.925781-53.75-22.175781-14.253906-14.25-22.234375-33.597657-22.179687-53.753907v-12.65625c-.054688-34.921875-28.351563-63.21875-63.277344-63.273437-6.96875-.050782-12.605469-5.6875-12.65625-12.65625v-139.207032c.023437-6.980468 5.675781-12.636718 12.65625-12.65625h253.105468c6.980469.019532 12.632813 5.675782 12.652344 12.65625zm0 0" fill="#ff5364"/><g fill="#f5efca"><path d="m56.949219 145.703125c-3.496094 0-6.328125-2.835937-6.328125-6.328125 0-3.496094 2.832031-6.328125 6.328125-6.328125-.203125 0 9.332031-1.175781 19.644531-21.8125 14.832031-29.667969 62.328125-16.449219 64.347656-15.90625 3.316406.996094 5.21875 4.46875 4.269532 7.800781-.949219 3.328125-4.402344 5.277344-7.742188 4.367188-.394531-.113282-39.410156-10.894532-49.558594 9.398437-13.992187 27.996094-29.265625 28.808594-30.960937 28.808594zm0 0"/><path d="m94.914062 145.703125c-2.324218-.003906-4.460937-1.28125-5.566406-3.324219-1.101562-2.046875-.992187-4.535156.28125-6.476562 1.761719-2.714844 2.371094-6.019532 1.695313-9.183594-1.398438-3.542969-6.535157-5.492188-10.605469-6.511719-3.332031-.894531-5.335938-4.296875-4.496094-7.644531.835938-3.347656 4.203125-5.410156 7.566406-4.628906 8.429688 1.210937 15.695313 6.5625 19.347657 14.253906 2.1875 6.996094 1.097656 14.601562-2.964844 20.699219-1.171875 1.757812-3.144531 2.8125-5.257813 2.816406zm0 0"/><path d="m105.859375 77.6875c-8.28125-.140625-16.140625-3.671875-21.746094-9.769531-5.417969-6.027344-12.855469-9.871094-20.90625-10.800781-3.480469-.0625-6.257812-2.917969-6.222656-6.398438.039063-3.453125 2.839844-6.238281 6.292969-6.257812 11.398437.921874 22.03125 6.101562 29.78125 14.507812 4.277344 5.398438 11.523437 7.46875 18.007812 5.144531 3.128906-1.5625 6.929688-.296875 8.492188 2.828125 1.566406 3.125.296875 6.925782-2.828125 8.492188-3.417969 1.523437-7.125 2.292968-10.871094 2.253906zm0 0"/><path d="m232.980469 255.675781c-2.902344 2.167969-5.648438 4.539063-8.222657 7.085938-.476562.453125-.921874.9375-1.332031 1.457031-.746093-.722656-1.308593-1.613281-1.644531-2.597656-3.765625-9.808594-11.515625-17.558594-21.324219-21.320313-22.019531-7.34375-29.105469-34.929687-29.421875-36.132812-.644531-2.226563-.015625-4.628907 1.632813-6.257813 1.652343-1.628906 4.058593-2.226562 6.28125-1.554687 2.21875.671875 3.890625 2.503906 4.363281 4.777343 1.175781 4.0625 2.789062 7.988282 4.808594 11.707032 3.359375 6.996094 9.199218 12.496094 16.386718 15.4375 12.929688 4.710937 23.269532 14.660156 28.472657 27.398437zm0 0"/><path d="m303.722656 89.007812v18.730469c-2.390625.019531-4.578125-1.335937-5.628906-3.484375-5.0625-10.058594-5.0625-10.058594-27.527344-15.691406-8.515625-1.78125-15.902344-7.035156-20.378906-14.492188-4.480469-7.460937-5.648438-16.449218-3.222656-24.800781.46875-2.273437 2.144531-4.105469 4.363281-4.777343 2.222656-.671876 4.628906-.074219 6.28125 1.554687 1.648437 1.628906 2.277344 4.03125 1.632813 6.257813-1.578126 5.097656-.914063 10.621093 1.828124 15.199218 2.742188 4.574219 7.296876 7.769532 12.535157 8.785156 18.601562 4.679688 25.054687 6.261719 30.117187 12.71875zm0 0"/><path d="m272.085938 145.703125c-19.292969 0-24.226563-6.890625-29.105469-16.625-1.71875-3.890625-4.089844-7.457031-7.019531-10.539063-2.078126-2.355468-5.070313-3.699218-8.207032-3.695312-3.140625.007812-6.128906 1.367188-8.191406 3.730469-2.496094 2.390625-6.441406 2.339843-8.875-.113281-2.429688-2.449219-2.445312-6.398438-.035156-8.871094 4.449218-4.71875 10.644531-7.394532 17.128906-7.394532s12.679688 2.675782 17.128906 7.394532c3.898438 4.035156 7.078125 8.714844 9.390625 13.832031 3.414063 6.808594 4.820313 9.625 17.785157 9.625 3.496093 0 6.328124 2.832031 6.328124 6.328125 0 3.492188-2.832031 6.328125-6.328124 6.328125zm0 0"/></g><path d="m290.941406 27.945312c-1.632812 13.203126-12.957031 23.050782-26.257812 22.839844h-49.542969c-20.96875 0-37.96875 17-37.96875 37.96875v195.078125c.21875 10.222657-7.421875 18.910157-17.589844 19.996094-5.261719.386719-10.441406-1.433594-14.308593-5.023437-3.863282-3.585938-6.0625-8.621094-6.066407-13.898438v-234.117188c-.003906-25.175781 18.492188-46.527343 43.410157-50.117187.3125-.050781.628906-.074219.945312-.0625 3.480469.070313 6.265625 2.910156 6.265625 6.390625v5.0625c-.179687 6.375 4.253906 11.957031 10.503906 13.226562 3.679688.632813 7.449219-.386718 10.300781-2.789062 2.855469-2.402344 4.503907-5.945312 4.507813-9.675781v-6.328125c0-3.496094 2.832031-6.328125 6.324219-6.328125h44.292968c7.140626 0 13.949219 3.019531 18.746094 8.308593 4.796875 5.292969 7.136719 12.363282 6.4375 19.46875zm0 0" fill="#ecf0f1"/></svg>