<svg height="70" viewBox="0 0 512 512" width="70" xmlns="http://www.w3.org/2000/svg"><g id="Flat"><path d="m328 248a120.01 120.01 0 0 1 -120 120h-64a120 120 0 0 1 0-240h64a120.009 120.009 0 0 1 120 120z" fill="#f35244"/><path d="m72.746 211.649-14.238-7.3a96.521 96.521 0 0 1 11.492-17.449l12.33 10.2a80.435 80.435 0 0 0 -9.584 14.549z" fill="#fc685b"/><path d="m63.576 300.375a95.967 95.967 0 0 1 -11.931-78.609l15.388 4.377a79.982 79.982 0 0 0 9.938 65.482z" fill="#fc685b"/><path d="m192 112 48-24-32 56 40 40-56-8-16 48-16-48-56 8 40-40-32-56 48 24v-21.4a70.2 70.2 0 0 1 48-66.6l8 24a53.9 53.9 0 0 0 -24 44.844z" fill="#79ad54"/><path d="m192 136a8 8 0 0 1 -8-8v-16a8 8 0 0 1 16 0v16a8 8 0 0 1 -8 8z" fill="#6a9c46"/><path d="m160 136a8 8 0 0 1 -8-8v-16a8 8 0 0 1 16 0v16a8 8 0 0 1 -8 8z" fill="#6a9c46"/><path d="m328 248a120.01 120.01 0 0 1 -120 120h-64a119.978 119.978 0 0 1 -102.71-57.9c121.33-5.15 206.82-46.67 258.17-139.78a119.493 119.493 0 0 1 28.54 77.68z" fill="#e64c3f"/><path d="m488 368a120.01 120.01 0 0 1 -120 120h-64a120 120 0 0 1 0-240h64a120.007 120.007 0 0 1 120 120z" fill="#fc685b"/><g fill="#e04538"><path d="m300 312a20 20 0 0 1 20 20v-37.122a14.878 14.878 0 0 0 -14.878-14.878h-1.122a88.1 88.1 0 0 0 -88 88.868c.47 48.446 40.67 87.132 89.118 87.132a14.878 14.878 0 0 0 14.882-14.878v-45.122a20 20 0 1 1 -35.972-12h-.028a20 20 0 0 1 0-40h.028a19.973 19.973 0 0 1 15.972-32z"/><path d="m366.878 280a14.878 14.878 0 0 0 -14.878 14.878v37.122a20 20 0 1 1 35.972 12h.028a20 20 0 0 1 0 40h-.028a19.991 19.991 0 1 1 -35.972 12v45.122a14.878 14.878 0 0 0 14.878 14.878h1.122a88.1 88.1 0 0 0 88-88.868c-.474-48.446-40.674-87.132-89.122-87.132z"/></g></g></svg>