<svg height="70" viewBox="-42 0 512 512.00075" width="70" xmlns="http://www.w3.org/2000/svg"><path d="m132.753906 511.949219c-7.179687 0-14.253906-2.769531-19.730468-8.113281-42.210938-41.183594-113.023438-132.207032-113.023438-279.125 0-150.90625 110.25-224.710938 213.523438-224.710938 102.894531 0 213.523437 73.347656 213.523437 224.710938 0 146.917968-70.808594 237.941406-113.019531 279.128906-20.34375 19.839844-53.949219.652344-47.339844-26.957032 14.59375-60.964843 2.621094-102.828124-34.621094-121.058593-11.863281-5.804688-25.515625-5.738281-37.449218.183593-36.953126 18.332032-48.796876 60.128907-34.253907 120.875 2.976563 12.4375-2.484375 25.027344-13.589843 31.328126-4.421876 2.511718-9.242188 3.738281-14.019532 3.738281zm0 0" fill="#707487"/><path d="m297.59375 476.882812c14.59375-60.964843 2.625-102.828124-34.621094-121.058593-10.726562-5.25-22.914062-5.679688-33.976562-1.339844 1.03125.410156 2.058594.847656 3.070312 1.339844 37.242188 18.230469 49.214844 60.09375 34.621094 121.058593-6.164062 25.757813 22.667969 44.179688 43.082031 30.421876-9.335937-6.015626-15.324219-17.257813-12.175781-30.421876zm0 0" fill="#52586d"/><path d="m143.929688 503.835938c-42.210938-41.183594-113.019532-132.207032-113.019532-279.125 0-143.394532 99.542969-217.164063 198.0625-224.152344-5.160156-.367188-10.3125-.558594-15.449218-.558594-103.273438 0-213.523438 73.804688-213.523438 224.710938 0 146.917968 70.8125 237.941406 113.019531 279.125 5.476563 5.34375 12.554688 8.113281 19.734375 8.113281 4.773438 0 9.597656-1.226563 14.019532-3.738281.5-.285157.980468-.597657 1.457031-.90625-1.511719-1-2.957031-2.15625-4.300781-3.46875zm0 0" fill="#52586d"/><path d="m213.523438 32.800781c-82.996094 0-180.605469 57.449219-180.605469 191.910157 0 122.738281 53.515625 202.652343 92.160156 244.34375-16.625-91.585938 26.585937-128.488282 54.910156-142.535157 21.171875-10.503906 45.425781-10.597656 66.546875-.257812 28.554688 13.972656 72.132813 50.820312 55.433594 142.792969 38.644531-41.691407 92.160156-121.605469 92.160156-244.34375 0-69.679688-24.652344-122.65625-73.273437-157.453126-32.097657-22.972656-69.714844-34.457031-107.332031-34.457031zm0 0" fill="#f25c5c"/><g fill="#d83f3f"><path d="m122.246094 413.699219c-27.117188-45.066407-50.644532-107.609375-50.644532-188.988281 0-124.144532 83.203126-182.636719 161.296876-190.882813-6.441407-.679687-12.90625-1.027344-19.375-1.027344-82.996094 0-180.605469 57.449219-180.605469 191.910157 0 122.738281 53.515625 202.652343 92.160156 244.34375-3.859375-21.269532-4.492187-39.585938-2.832031-55.355469zm0 0"/><path d="m343.496094 413.6875c-5.503906-52.421875-36.324219-76.683594-58.273438-87.425781-16.519531-8.089844-34.957031-9.792969-52.335937-5.125 4.648437 1.25 9.21875 2.953125 13.648437 5.125 28.554688 13.972656 72.132813 50.820312 55.433594 142.792969 13.027344-14.050782 27.738281-32.453126 41.527344-55.367188zm0 0"/><path d="m246.441406 238.996094c0-23.859375-14.738281-43.203125-32.917968-43.203125-18.179688 0-32.917969 19.34375-32.917969 43.203125s14.738281 43.203125 32.917969 43.203125c18.179687 0 32.917968-19.34375 32.917968-43.203125zm0 0"/></g><path d="m217.199219 238.996094c0-14.972656 5.804687-28.164063 14.621093-35.914063-5.230468-4.601562-11.523437-7.289062-18.296874-7.289062-18.179688 0-32.917969 19.34375-32.917969 43.203125s14.738281 43.203125 32.917969 43.203125c6.773437 0 13.066406-2.6875 18.296874-7.289063-8.816406-7.75-14.621093-20.941406-14.621093-35.914062zm0 0" fill="#c33"/><path d="m399.988281 264.09375c7.851563-81.890625-7.710937-155.222656-74.632812-203.117188-32.820313-23.488281-71.488281-35.902343-111.832031-35.902343-89.511719 0-188.332032 62.90625-188.332032 199.636719 0 99.960937 35.4375 186.179687 94.21875 249.597656 5.222656 5.628906 14.648438.953125 13.269532-6.632813-15.800782-87.058593 25.007812-121.472656 50.742187-134.234375 19.003906-9.429687 40.769531-9.515625 59.71875-.242187 25.941406 12.699219 67.097656 47.058593 51.226563 134.472656-1.375 7.574219 8.035156 12.277344 13.269531 6.632813 25.472656-27.480469 46.316406-59.058594 61.953125-93.863282 21.546875-47.960937 29.660156-98.554687 30.398437-116.347656zm-37.371093 93.289062c-26.273438-50.140624-68.90625-82.992187-112.863282-95.351562 4.5-11.0625 5.503906-23.464844 3.261719-35.039062 29.832031-1.449219 79.542969 3.480468 131.117187 40.410156-3.621093 33.785156-11.382812 63.710937-21.515624 89.980468zm-149.09375-82.910156c-13.652344 0-25.191407-16.246094-25.191407-35.476562 0-19.230469 11.539063-35.476563 25.191407-35.476563 13.65625 0 25.191406 16.246094 25.191406 35.476563 0 19.230468-11.535156 35.476562-25.191406 35.476562zm-170.539063-6.382812c51.746094-37.449219 101.355469-42.503906 131.046875-41.09375-2.246094 11.605468-1.226562 24 3.261719 35.035156-43.816407 12.320312-86.496094 45.035156-112.859375 95.351562-10.066406-26.09375-17.792969-55.789062-21.449219-89.292968zm5.007813-102.152344c58.414062-17.082031 117.476562-6.765625 157.804687 18.070312v4.996094c-11.175781 2.707032-20.730469 11.167969-26.621094 22.816406-30.027343-2.117187-82.414062 1.421876-137.714843 38.5-1.832032-29.09375-1.003907-56.339843 6.53125-84.382812zm173.257812-125.238281c33.300781 1.429687 65.128906 12.105469 92.652344 31.117187-34.0625 1.355469-67.046875 12.667969-92.652344 34.703125zm-15.453125 65.820312c-23.78125-20.464843-56.101563-33.390625-93.320313-34.730469 27.863282-19.5625 60.847657-29.710937 93.320313-31.097656zm42.078125 105.300781c-5.894531-11.648437-15.445312-20.109374-26.625-22.816406v-4.96875c14.585938-8.851562 76.621094-41.808594 158.007812-18.347656 7.304688 27.695312 8.125 55.277344 6.367188 83.972656-55.121094-36.558594-107.589844-39.984375-137.75-37.839844zm125.839844-63.578124c-54.539063-13.15625-109.457032-4.761719-152.464844 18.023437v-38.046875c7.4375-8.722656 43.1875-45.574219 112.238281-40.640625 17.96875 16.824219 31.394531 37.089844 40.226563 60.664063zm-280.429688-60.640626c51.503906-3.765624 91.484375 16.023438 112.511719 40.628907v37.957031c-43.03125-23-97.796875-31.078125-152.171875-17.761719 9.285156-24.609375 23.046875-44.820312 39.660156-60.824219zm20.859375 356.84375c-14.65625-18.496093-29.355469-41.105468-41.71875-68.089843 24.800781-55.613281 69.144531-89.859375 113.101563-100.492188 5.515625 6.582031 12.5 11.246094 20.269531 13.128907v22.222656c-42.070313 4.007812-97.910156 44.78125-91.652344 133.230468zm135.789063-125.125c-9.167969-4.484374-18.867188-7.183593-28.683594-8.109374v-22.21875c7.773438-1.882813 14.753906-6.546876 20.273438-13.128907 16.832031 4.078125 78.960937 23.976563 113.109374 100.472657-12.363281 26.992187-27.0625 49.605468-41.726562 68.101562 5.570312-78.5625-35.917969-111.875-62.972656-125.117188zm0 0" fill="#f97a7a"/></svg>