<svg height="70" viewBox="0 0 64 64" width="70" xmlns="http://www.w3.org/2000/svg"><g id="flat"><path d="m44.529 14.529-36.529 33.471-2 10 10-2 33.478-36.522z" fill="#98b398"/><g fill="#ffd782"><path d="m3 62a1 1 0 0 1 -.707-1.707l4-4a1 1 0 0 1 1.414 1.414l-4 4a1 1 0 0 1 -.707.293z"/><path d="m14 54a1 1 0 0 1 -.707-.293l-3-3a1 1 0 0 1 1.414-1.414l3 3a1 1 0 0 1 -.707 1.707z"/><path d="m15 45h2v2h-2z"/><path d="m19 42h2v2h-2z"/><path d="m44.529 14.529 4.949 4.949 10.522-11.478a2.822 2.822 0 1 0 -4-3.98z"/></g></g></svg>